<?xml version="1.0" encoding="utf-8" standalone="no"?>
<!DOCTYPE svg PUBLIC "-//W3C//DTD SVG 1.1//EN"
  "http://www.w3.org/Graphics/SVG/1.1/DTD/svg11.dtd">
<!-- Created with matplotlib (https://matplotlib.org/) -->
<svg height="507.835625pt" version="1.1" viewBox="0 0 525.555 507.835625" width="525.555pt" xmlns="http://www.w3.org/2000/svg" xmlns:xlink="http://www.w3.org/1999/xlink">
 <metadata>
  <rdf:RDF xmlns:cc="http://creativecommons.org/ns#" xmlns:dc="http://purl.org/dc/elements/1.1/" xmlns:rdf="http://www.w3.org/1999/02/22-rdf-syntax-ns#">
   <cc:Work>
    <dc:type rdf:resource="http://purl.org/dc/dcmitype/StillImage"/>
    <dc:date>2022-04-28T10:54:57.814219</dc:date>
    <dc:format>image/svg+xml</dc:format>
    <dc:creator>
     <cc:Agent>
      <dc:title>Matplotlib v3.3.2, https://matplotlib.org/</dc:title>
     </cc:Agent>
    </dc:creator>
   </cc:Work>
  </rdf:RDF>
 </metadata>
 <defs>
  <style type="text/css">*{stroke-linecap:butt;stroke-linejoin:round;}</style>
 </defs>
 <g id="figure_1">
  <g id="patch_1">
   <path d="M 0 507.835625 
L 525.555 507.835625 
L 525.555 0 
L 0 0 
z
" style="fill:#ffffff;"/>
  </g>
  <g id="axes_1">
   <g id="patch_2">
    <path d="M 71.955 442.08 
L 518.355 442.08 
L 518.355 7.2 
L 71.955 7.2 
z
" style="fill:#ffffff;"/>
   </g>
   <g id="matplotlib.axis_1">
    <g id="xtick_1">
     <g id="line2d_1">
      <defs>
       <path d="M 0 0 
L 0 3.5 
" id="me50bb2fb41" style="stroke:#000000;stroke-width:0.8;"/>
      </defs>
      <g>
       <use style="stroke:#000000;stroke-width:0.8;" x="138.18909" xlink:href="#me50bb2fb41" y="442.08"/>
      </g>
     </g>
     <g id="text_1">
      <!-- −2 -->
      <g transform="translate(123.367059 467.690312)scale(0.26 -0.26)">
       <defs>
        <path d="M 52.828125 31.203125 
L 5.5625 31.203125 
L 5.5625 39.40625 
L 52.828125 39.40625 
z
" id="ArialMT-8722"/>
        <path d="M 50.34375 8.453125 
L 50.34375 0 
L 3.03125 0 
Q 2.9375 3.171875 4.046875 6.109375 
Q 5.859375 10.9375 9.828125 15.625 
Q 13.8125 20.3125 21.34375 26.46875 
Q 33.015625 36.03125 37.109375 41.625 
Q 41.21875 47.21875 41.21875 52.203125 
Q 41.21875 57.421875 37.46875 61 
Q 33.734375 64.59375 27.734375 64.59375 
Q 21.390625 64.59375 17.578125 60.78125 
Q 13.765625 56.984375 13.71875 50.25 
L 4.6875 51.171875 
Q 5.609375 61.28125 11.65625 66.578125 
Q 17.71875 71.875 27.9375 71.875 
Q 38.234375 71.875 44.234375 66.15625 
Q 50.25 60.453125 50.25 52 
Q 50.25 47.703125 48.484375 43.546875 
Q 46.734375 39.40625 42.65625 34.8125 
Q 38.578125 30.21875 29.109375 22.21875 
Q 21.1875 15.578125 18.9375 13.203125 
Q 16.703125 10.84375 15.234375 8.453125 
z
" id="ArialMT-50"/>
       </defs>
       <use xlink:href="#ArialMT-8722"/>
       <use x="58.398438" xlink:href="#ArialMT-50"/>
      </g>
     </g>
    </g>
    <g id="xtick_2">
     <g id="line2d_2">
      <g>
       <use style="stroke:#000000;stroke-width:0.8;" x="295.155" xlink:href="#me50bb2fb41" y="442.08"/>
      </g>
     </g>
     <g id="text_2">
      <!-- 0 -->
      <g transform="translate(287.925781 467.690312)scale(0.26 -0.26)">
       <defs>
        <path d="M 4.15625 35.296875 
Q 4.15625 48 6.765625 55.734375 
Q 9.375 63.484375 14.515625 67.671875 
Q 19.671875 71.875 27.484375 71.875 
Q 33.25 71.875 37.59375 69.546875 
Q 41.9375 67.234375 44.765625 62.859375 
Q 47.609375 58.5 49.21875 52.21875 
Q 50.828125 45.953125 50.828125 35.296875 
Q 50.828125 22.703125 48.234375 14.96875 
Q 45.65625 7.234375 40.5 3 
Q 35.359375 -1.21875 27.484375 -1.21875 
Q 17.140625 -1.21875 11.234375 6.203125 
Q 4.15625 15.140625 4.15625 35.296875 
z
M 13.1875 35.296875 
Q 13.1875 17.671875 17.3125 11.828125 
Q 21.4375 6 27.484375 6 
Q 33.546875 6 37.671875 11.859375 
Q 41.796875 17.71875 41.796875 35.296875 
Q 41.796875 52.984375 37.671875 58.78125 
Q 33.546875 64.59375 27.390625 64.59375 
Q 21.34375 64.59375 17.71875 59.46875 
Q 13.1875 52.9375 13.1875 35.296875 
z
" id="ArialMT-48"/>
       </defs>
       <use xlink:href="#ArialMT-48"/>
      </g>
     </g>
    </g>
    <g id="xtick_3">
     <g id="line2d_3">
      <g>
       <use style="stroke:#000000;stroke-width:0.8;" x="452.12091" xlink:href="#me50bb2fb41" y="442.08"/>
      </g>
     </g>
     <g id="text_3">
      <!-- 2 -->
      <g transform="translate(444.891691 467.690312)scale(0.26 -0.26)">
       <use xlink:href="#ArialMT-50"/>
      </g>
     </g>
    </g>
    <g id="text_4">
     <!-- Theoretical Quantiles -->
     <g transform="translate(172.323281 495.468125)scale(0.26 -0.26)">
      <defs>
       <path d="M 25.921875 0 
L 25.921875 63.140625 
L 2.34375 63.140625 
L 2.34375 71.578125 
L 59.078125 71.578125 
L 59.078125 63.140625 
L 35.40625 63.140625 
L 35.40625 0 
z
" id="ArialMT-84"/>
       <path d="M 6.59375 0 
L 6.59375 71.578125 
L 15.375 71.578125 
L 15.375 45.90625 
Q 21.53125 53.03125 30.90625 53.03125 
Q 36.671875 53.03125 40.921875 50.75 
Q 45.171875 48.484375 47 44.484375 
Q 48.828125 40.484375 48.828125 32.859375 
L 48.828125 0 
L 40.046875 0 
L 40.046875 32.859375 
Q 40.046875 39.453125 37.1875 42.453125 
Q 34.328125 45.453125 29.109375 45.453125 
Q 25.203125 45.453125 21.75 43.421875 
Q 18.3125 41.40625 16.84375 37.9375 
Q 15.375 34.46875 15.375 28.375 
L 15.375 0 
z
" id="ArialMT-104"/>
       <path d="M 42.09375 16.703125 
L 51.171875 15.578125 
Q 49.03125 7.625 43.21875 3.21875 
Q 37.40625 -1.171875 28.375 -1.171875 
Q 17 -1.171875 10.328125 5.828125 
Q 3.65625 12.84375 3.65625 25.484375 
Q 3.65625 38.578125 10.390625 45.796875 
Q 17.140625 53.03125 27.875 53.03125 
Q 38.28125 53.03125 44.875 45.953125 
Q 51.46875 38.875 51.46875 26.03125 
Q 51.46875 25.25 51.421875 23.6875 
L 12.75 23.6875 
Q 13.234375 15.140625 17.578125 10.59375 
Q 21.921875 6.0625 28.421875 6.0625 
Q 33.25 6.0625 36.671875 8.59375 
Q 40.09375 11.140625 42.09375 16.703125 
z
M 13.234375 30.90625 
L 42.1875 30.90625 
Q 41.609375 37.453125 38.875 40.71875 
Q 34.671875 45.796875 27.984375 45.796875 
Q 21.921875 45.796875 17.796875 41.75 
Q 13.671875 37.703125 13.234375 30.90625 
z
" id="ArialMT-101"/>
       <path d="M 3.328125 25.921875 
Q 3.328125 40.328125 11.328125 47.265625 
Q 18.015625 53.03125 27.640625 53.03125 
Q 38.328125 53.03125 45.109375 46.015625 
Q 51.90625 39.015625 51.90625 26.65625 
Q 51.90625 16.65625 48.90625 10.90625 
Q 45.90625 5.171875 40.15625 2 
Q 34.421875 -1.171875 27.640625 -1.171875 
Q 16.75 -1.171875 10.03125 5.8125 
Q 3.328125 12.796875 3.328125 25.921875 
z
M 12.359375 25.921875 
Q 12.359375 15.96875 16.703125 11.015625 
Q 21.046875 6.0625 27.640625 6.0625 
Q 34.1875 6.0625 38.53125 11.03125 
Q 42.875 16.015625 42.875 26.21875 
Q 42.875 35.84375 38.5 40.796875 
Q 34.125 45.75 27.640625 45.75 
Q 21.046875 45.75 16.703125 40.8125 
Q 12.359375 35.890625 12.359375 25.921875 
z
" id="ArialMT-111"/>
       <path d="M 6.5 0 
L 6.5 51.859375 
L 14.40625 51.859375 
L 14.40625 44 
Q 17.4375 49.515625 20 51.265625 
Q 22.5625 53.03125 25.640625 53.03125 
Q 30.078125 53.03125 34.671875 50.203125 
L 31.640625 42.046875 
Q 28.421875 43.953125 25.203125 43.953125 
Q 22.3125 43.953125 20.015625 42.21875 
Q 17.71875 40.484375 16.75 37.40625 
Q 15.28125 32.71875 15.28125 27.15625 
L 15.28125 0 
z
" id="ArialMT-114"/>
       <path d="M 25.78125 7.859375 
L 27.046875 0.09375 
Q 23.34375 -0.6875 20.40625 -0.6875 
Q 15.625 -0.6875 12.984375 0.828125 
Q 10.359375 2.34375 9.28125 4.8125 
Q 8.203125 7.28125 8.203125 15.1875 
L 8.203125 45.015625 
L 1.765625 45.015625 
L 1.765625 51.859375 
L 8.203125 51.859375 
L 8.203125 64.703125 
L 16.9375 69.96875 
L 16.9375 51.859375 
L 25.78125 51.859375 
L 25.78125 45.015625 
L 16.9375 45.015625 
L 16.9375 14.703125 
Q 16.9375 10.9375 17.40625 9.859375 
Q 17.875 8.796875 18.921875 8.15625 
Q 19.96875 7.515625 21.921875 7.515625 
Q 23.390625 7.515625 25.78125 7.859375 
z
" id="ArialMT-116"/>
       <path d="M 6.640625 61.46875 
L 6.640625 71.578125 
L 15.4375 71.578125 
L 15.4375 61.46875 
z
M 6.640625 0 
L 6.640625 51.859375 
L 15.4375 51.859375 
L 15.4375 0 
z
" id="ArialMT-105"/>
       <path d="M 40.4375 19 
L 49.078125 17.875 
Q 47.65625 8.9375 41.8125 3.875 
Q 35.984375 -1.171875 27.484375 -1.171875 
Q 16.84375 -1.171875 10.375 5.78125 
Q 3.90625 12.75 3.90625 25.734375 
Q 3.90625 34.125 6.6875 40.421875 
Q 9.46875 46.734375 15.15625 49.875 
Q 20.84375 53.03125 27.546875 53.03125 
Q 35.984375 53.03125 41.359375 48.75 
Q 46.734375 44.484375 48.25 36.625 
L 39.703125 35.296875 
Q 38.484375 40.53125 35.375 43.15625 
Q 32.28125 45.796875 27.875 45.796875 
Q 21.234375 45.796875 17.078125 41.03125 
Q 12.9375 36.28125 12.9375 25.984375 
Q 12.9375 15.53125 16.9375 10.796875 
Q 20.953125 6.0625 27.390625 6.0625 
Q 32.5625 6.0625 36.03125 9.234375 
Q 39.5 12.40625 40.4375 19 
z
" id="ArialMT-99"/>
       <path d="M 40.4375 6.390625 
Q 35.546875 2.25 31.03125 0.53125 
Q 26.515625 -1.171875 21.34375 -1.171875 
Q 12.796875 -1.171875 8.203125 3 
Q 3.609375 7.171875 3.609375 13.671875 
Q 3.609375 17.484375 5.34375 20.625 
Q 7.078125 23.78125 9.890625 25.6875 
Q 12.703125 27.59375 16.21875 28.5625 
Q 18.796875 29.25 24.03125 29.890625 
Q 34.671875 31.15625 39.703125 32.90625 
Q 39.75 34.71875 39.75 35.203125 
Q 39.75 40.578125 37.25 42.78125 
Q 33.890625 45.75 27.25 45.75 
Q 21.046875 45.75 18.09375 43.578125 
Q 15.140625 41.40625 13.71875 35.890625 
L 5.125 37.0625 
Q 6.296875 42.578125 8.984375 45.96875 
Q 11.671875 49.359375 16.75 51.1875 
Q 21.828125 53.03125 28.515625 53.03125 
Q 35.15625 53.03125 39.296875 51.46875 
Q 43.453125 49.90625 45.40625 47.53125 
Q 47.359375 45.171875 48.140625 41.546875 
Q 48.578125 39.3125 48.578125 33.453125 
L 48.578125 21.734375 
Q 48.578125 9.46875 49.140625 6.21875 
Q 49.703125 2.984375 51.375 0 
L 42.1875 0 
Q 40.828125 2.734375 40.4375 6.390625 
z
M 39.703125 26.03125 
Q 34.90625 24.078125 25.34375 22.703125 
Q 19.921875 21.921875 17.671875 20.9375 
Q 15.4375 19.96875 14.203125 18.09375 
Q 12.984375 16.21875 12.984375 13.921875 
Q 12.984375 10.40625 15.640625 8.0625 
Q 18.3125 5.71875 23.4375 5.71875 
Q 28.515625 5.71875 32.46875 7.9375 
Q 36.421875 10.15625 38.28125 14.015625 
Q 39.703125 17 39.703125 22.796875 
z
" id="ArialMT-97"/>
       <path d="M 6.390625 0 
L 6.390625 71.578125 
L 15.1875 71.578125 
L 15.1875 0 
z
" id="ArialMT-108"/>
       <path id="ArialMT-32"/>
       <path d="M 61.96875 7.671875 
Q 68.5625 3.125 74.125 1.03125 
L 71.34375 -5.5625 
Q 63.625 -2.78125 55.953125 3.21875 
Q 48 -1.21875 38.375 -1.21875 
Q 28.65625 -1.21875 20.75 3.46875 
Q 12.84375 8.15625 8.5625 16.640625 
Q 4.296875 25.140625 4.296875 35.796875 
Q 4.296875 46.390625 8.59375 55.078125 
Q 12.890625 63.765625 20.828125 68.3125 
Q 28.765625 72.859375 38.578125 72.859375 
Q 48.484375 72.859375 56.4375 68.140625 
Q 64.40625 63.421875 68.578125 54.953125 
Q 72.75 46.484375 72.75 35.84375 
Q 72.75 27 70.0625 19.9375 
Q 67.390625 12.890625 61.96875 7.671875 
z
M 41.109375 19.78125 
Q 49.3125 17.484375 54.640625 12.9375 
Q 62.984375 20.5625 62.984375 35.84375 
Q 62.984375 44.53125 60.03125 51.015625 
Q 57.078125 57.515625 51.390625 61.109375 
Q 45.703125 64.703125 38.625 64.703125 
Q 28.03125 64.703125 21.046875 57.453125 
Q 14.0625 50.203125 14.0625 35.796875 
Q 14.0625 21.828125 20.96875 14.359375 
Q 27.875 6.890625 38.625 6.890625 
Q 43.703125 6.890625 48.1875 8.796875 
Q 43.75 11.671875 38.8125 12.890625 
z
" id="ArialMT-81"/>
       <path d="M 40.578125 0 
L 40.578125 7.625 
Q 34.515625 -1.171875 24.125 -1.171875 
Q 19.53125 -1.171875 15.546875 0.578125 
Q 11.578125 2.34375 9.640625 5 
Q 7.71875 7.671875 6.9375 11.53125 
Q 6.390625 14.109375 6.390625 19.734375 
L 6.390625 51.859375 
L 15.1875 51.859375 
L 15.1875 23.09375 
Q 15.1875 16.21875 15.71875 13.8125 
Q 16.546875 10.359375 19.234375 8.375 
Q 21.921875 6.390625 25.875 6.390625 
Q 29.828125 6.390625 33.296875 8.421875 
Q 36.765625 10.453125 38.203125 13.9375 
Q 39.65625 17.4375 39.65625 24.078125 
L 39.65625 51.859375 
L 48.4375 51.859375 
L 48.4375 0 
z
" id="ArialMT-117"/>
       <path d="M 6.59375 0 
L 6.59375 51.859375 
L 14.5 51.859375 
L 14.5 44.484375 
Q 20.21875 53.03125 31 53.03125 
Q 35.6875 53.03125 39.625 51.34375 
Q 43.5625 49.65625 45.515625 46.921875 
Q 47.46875 44.1875 48.25 40.4375 
Q 48.734375 37.984375 48.734375 31.890625 
L 48.734375 0 
L 39.9375 0 
L 39.9375 31.546875 
Q 39.9375 36.921875 38.90625 39.578125 
Q 37.890625 42.234375 35.28125 43.8125 
Q 32.671875 45.40625 29.15625 45.40625 
Q 23.53125 45.40625 19.453125 41.84375 
Q 15.375 38.28125 15.375 28.328125 
L 15.375 0 
z
" id="ArialMT-110"/>
       <path d="M 3.078125 15.484375 
L 11.765625 16.84375 
Q 12.5 11.625 15.84375 8.84375 
Q 19.1875 6.0625 25.203125 6.0625 
Q 31.25 6.0625 34.171875 8.515625 
Q 37.109375 10.984375 37.109375 14.3125 
Q 37.109375 17.28125 34.515625 19 
Q 32.71875 20.171875 25.53125 21.96875 
Q 15.875 24.421875 12.140625 26.203125 
Q 8.40625 27.984375 6.46875 31.125 
Q 4.546875 34.28125 4.546875 38.09375 
Q 4.546875 41.546875 6.125 44.5 
Q 7.71875 47.46875 10.453125 49.421875 
Q 12.5 50.921875 16.03125 51.96875 
Q 19.578125 53.03125 23.640625 53.03125 
Q 29.734375 53.03125 34.34375 51.265625 
Q 38.96875 49.515625 41.15625 46.5 
Q 43.359375 43.5 44.1875 38.484375 
L 35.59375 37.3125 
Q 35.015625 41.3125 32.203125 43.546875 
Q 29.390625 45.796875 24.265625 45.796875 
Q 18.21875 45.796875 15.625 43.796875 
Q 13.03125 41.796875 13.03125 39.109375 
Q 13.03125 37.40625 14.109375 36.03125 
Q 15.1875 34.625 17.484375 33.6875 
Q 18.796875 33.203125 25.25 31.453125 
Q 34.578125 28.953125 38.25 27.359375 
Q 41.9375 25.78125 44.03125 22.75 
Q 46.140625 19.734375 46.140625 15.234375 
Q 46.140625 10.84375 43.578125 6.953125 
Q 41.015625 3.078125 36.171875 0.953125 
Q 31.34375 -1.171875 25.25 -1.171875 
Q 15.140625 -1.171875 9.84375 3.03125 
Q 4.546875 7.234375 3.078125 15.484375 
z
" id="ArialMT-115"/>
      </defs>
      <use xlink:href="#ArialMT-84"/>
      <use x="61.083984" xlink:href="#ArialMT-104"/>
      <use x="116.699219" xlink:href="#ArialMT-101"/>
      <use x="172.314453" xlink:href="#ArialMT-111"/>
      <use x="227.929688" xlink:href="#ArialMT-114"/>
      <use x="261.230469" xlink:href="#ArialMT-101"/>
      <use x="316.845703" xlink:href="#ArialMT-116"/>
      <use x="344.628906" xlink:href="#ArialMT-105"/>
      <use x="366.845703" xlink:href="#ArialMT-99"/>
      <use x="416.845703" xlink:href="#ArialMT-97"/>
      <use x="472.460938" xlink:href="#ArialMT-108"/>
      <use x="494.677734" xlink:href="#ArialMT-32"/>
      <use x="522.460938" xlink:href="#ArialMT-81"/>
      <use x="600.244141" xlink:href="#ArialMT-117"/>
      <use x="655.859375" xlink:href="#ArialMT-97"/>
      <use x="711.474609" xlink:href="#ArialMT-110"/>
      <use x="767.089844" xlink:href="#ArialMT-116"/>
      <use x="794.873047" xlink:href="#ArialMT-105"/>
      <use x="817.089844" xlink:href="#ArialMT-108"/>
      <use x="839.306641" xlink:href="#ArialMT-101"/>
      <use x="894.921875" xlink:href="#ArialMT-115"/>
     </g>
    </g>
   </g>
   <g id="matplotlib.axis_2">
    <g id="ytick_1">
     <g id="line2d_4">
      <defs>
       <path d="M 0 0 
L -3.5 0 
" id="mbca66ddb43" style="stroke:#000000;stroke-width:0.8;"/>
      </defs>
      <g>
       <use style="stroke:#000000;stroke-width:0.8;" x="71.955" xlink:href="#mbca66ddb43" y="399.09673"/>
      </g>
     </g>
     <g id="text_5">
      <!-- −2 -->
      <g transform="translate(35.310938 408.401887)scale(0.26 -0.26)">
       <use xlink:href="#ArialMT-8722"/>
       <use x="58.398438" xlink:href="#ArialMT-50"/>
      </g>
     </g>
    </g>
    <g id="ytick_2">
     <g id="line2d_5">
      <g>
       <use style="stroke:#000000;stroke-width:0.8;" x="71.955" xlink:href="#mbca66ddb43" y="320.613776"/>
      </g>
     </g>
     <g id="text_6">
      <!-- −1 -->
      <g transform="translate(35.310938 329.918932)scale(0.26 -0.26)">
       <defs>
        <path d="M 37.25 0 
L 28.46875 0 
L 28.46875 56 
Q 25.296875 52.984375 20.140625 49.953125 
Q 14.984375 46.921875 10.890625 45.40625 
L 10.890625 53.90625 
Q 18.265625 57.375 23.78125 62.296875 
Q 29.296875 67.234375 31.59375 71.875 
L 37.25 71.875 
z
" id="ArialMT-49"/>
       </defs>
       <use xlink:href="#ArialMT-8722"/>
       <use x="58.398438" xlink:href="#ArialMT-49"/>
      </g>
     </g>
    </g>
    <g id="ytick_3">
     <g id="line2d_6">
      <g>
       <use style="stroke:#000000;stroke-width:0.8;" x="71.955" xlink:href="#mbca66ddb43" y="242.130821"/>
      </g>
     </g>
     <g id="text_7">
      <!-- 0 -->
      <g transform="translate(50.496563 251.435977)scale(0.26 -0.26)">
       <use xlink:href="#ArialMT-48"/>
      </g>
     </g>
    </g>
    <g id="ytick_4">
     <g id="line2d_7">
      <g>
       <use style="stroke:#000000;stroke-width:0.8;" x="71.955" xlink:href="#mbca66ddb43" y="163.647866"/>
      </g>
     </g>
     <g id="text_8">
      <!-- 1 -->
      <g transform="translate(50.496563 172.953022)scale(0.26 -0.26)">
       <use xlink:href="#ArialMT-49"/>
      </g>
     </g>
    </g>
    <g id="ytick_5">
     <g id="line2d_8">
      <g>
       <use style="stroke:#000000;stroke-width:0.8;" x="71.955" xlink:href="#mbca66ddb43" y="85.164911"/>
      </g>
     </g>
     <g id="text_9">
      <!-- 2 -->
      <g transform="translate(50.496563 94.470068)scale(0.26 -0.26)">
       <use xlink:href="#ArialMT-50"/>
      </g>
     </g>
    </g>
    <g id="text_10">
     <!-- Sample Quantiles -->
     <g transform="translate(26.143438 327.244531)rotate(-90)scale(0.26 -0.26)">
      <defs>
       <path d="M 4.5 23 
L 13.421875 23.78125 
Q 14.0625 18.40625 16.375 14.96875 
Q 18.703125 11.53125 23.578125 9.40625 
Q 28.46875 7.28125 34.578125 7.28125 
Q 39.984375 7.28125 44.140625 8.890625 
Q 48.296875 10.5 50.3125 13.296875 
Q 52.34375 16.109375 52.34375 19.4375 
Q 52.34375 22.796875 50.390625 25.3125 
Q 48.4375 27.828125 43.953125 29.546875 
Q 41.0625 30.671875 31.203125 33.03125 
Q 21.34375 35.40625 17.390625 37.5 
Q 12.25 40.1875 9.734375 44.15625 
Q 7.234375 48.140625 7.234375 53.078125 
Q 7.234375 58.5 10.296875 63.203125 
Q 13.375 67.921875 19.28125 70.359375 
Q 25.203125 72.796875 32.421875 72.796875 
Q 40.375 72.796875 46.453125 70.234375 
Q 52.546875 67.671875 55.8125 62.6875 
Q 59.078125 57.71875 59.328125 51.421875 
L 50.25 50.734375 
Q 49.515625 57.515625 45.28125 60.984375 
Q 41.0625 64.453125 32.8125 64.453125 
Q 24.21875 64.453125 20.28125 61.296875 
Q 16.359375 58.15625 16.359375 53.71875 
Q 16.359375 49.859375 19.140625 47.359375 
Q 21.875 44.875 33.421875 42.265625 
Q 44.96875 39.65625 49.265625 37.703125 
Q 55.515625 34.8125 58.484375 30.390625 
Q 61.46875 25.984375 61.46875 20.21875 
Q 61.46875 14.5 58.203125 9.4375 
Q 54.9375 4.390625 48.796875 1.578125 
Q 42.671875 -1.21875 35.015625 -1.21875 
Q 25.296875 -1.21875 18.71875 1.609375 
Q 12.15625 4.4375 8.421875 10.125 
Q 4.6875 15.828125 4.5 23 
z
" id="ArialMT-83"/>
       <path d="M 6.59375 0 
L 6.59375 51.859375 
L 14.453125 51.859375 
L 14.453125 44.578125 
Q 16.890625 48.390625 20.9375 50.703125 
Q 25 53.03125 30.171875 53.03125 
Q 35.9375 53.03125 39.625 50.640625 
Q 43.3125 48.25 44.828125 43.953125 
Q 50.984375 53.03125 60.84375 53.03125 
Q 68.5625 53.03125 72.703125 48.75 
Q 76.859375 44.484375 76.859375 35.59375 
L 76.859375 0 
L 68.109375 0 
L 68.109375 32.671875 
Q 68.109375 37.9375 67.25 40.25 
Q 66.40625 42.578125 64.15625 43.984375 
Q 61.921875 45.40625 58.890625 45.40625 
Q 53.421875 45.40625 49.796875 41.765625 
Q 46.1875 38.140625 46.1875 30.125 
L 46.1875 0 
L 37.40625 0 
L 37.40625 33.6875 
Q 37.40625 39.546875 35.25 42.46875 
Q 33.109375 45.40625 28.21875 45.40625 
Q 24.515625 45.40625 21.359375 43.453125 
Q 18.21875 41.5 16.796875 37.734375 
Q 15.375 33.984375 15.375 26.90625 
L 15.375 0 
z
" id="ArialMT-109"/>
       <path d="M 6.59375 -19.875 
L 6.59375 51.859375 
L 14.59375 51.859375 
L 14.59375 45.125 
Q 17.4375 49.078125 21 51.046875 
Q 24.5625 53.03125 29.640625 53.03125 
Q 36.28125 53.03125 41.359375 49.609375 
Q 46.4375 46.1875 49.015625 39.953125 
Q 51.609375 33.734375 51.609375 26.3125 
Q 51.609375 18.359375 48.75 11.984375 
Q 45.90625 5.609375 40.453125 2.21875 
Q 35.015625 -1.171875 29 -1.171875 
Q 24.609375 -1.171875 21.109375 0.6875 
Q 17.625 2.546875 15.375 5.375 
L 15.375 -19.875 
z
M 14.546875 25.640625 
Q 14.546875 15.625 18.59375 10.84375 
Q 22.65625 6.0625 28.421875 6.0625 
Q 34.28125 6.0625 38.453125 11.015625 
Q 42.625 15.96875 42.625 26.375 
Q 42.625 36.28125 38.546875 41.203125 
Q 34.46875 46.140625 28.8125 46.140625 
Q 23.1875 46.140625 18.859375 40.890625 
Q 14.546875 35.640625 14.546875 25.640625 
z
" id="ArialMT-112"/>
      </defs>
      <use xlink:href="#ArialMT-83"/>
      <use x="66.699219" xlink:href="#ArialMT-97"/>
      <use x="122.314453" xlink:href="#ArialMT-109"/>
      <use x="205.615234" xlink:href="#ArialMT-112"/>
      <use x="261.230469" xlink:href="#ArialMT-108"/>
      <use x="283.447266" xlink:href="#ArialMT-101"/>
      <use x="339.0625" xlink:href="#ArialMT-32"/>
      <use x="366.845703" xlink:href="#ArialMT-81"/>
      <use x="444.628906" xlink:href="#ArialMT-117"/>
      <use x="500.244141" xlink:href="#ArialMT-97"/>
      <use x="555.859375" xlink:href="#ArialMT-110"/>
      <use x="611.474609" xlink:href="#ArialMT-116"/>
      <use x="639.257812" xlink:href="#ArialMT-105"/>
      <use x="661.474609" xlink:href="#ArialMT-108"/>
      <use x="683.691406" xlink:href="#ArialMT-101"/>
      <use x="739.306641" xlink:href="#ArialMT-115"/>
     </g>
    </g>
   </g>
   <g id="line2d_9">
    <defs>
     <path d="M 0 3 
C 0.795609 3 1.55874 2.683901 2.12132 2.12132 
C 2.683901 1.55874 3 0.795609 3 0 
C 3 -0.795609 2.683901 -1.55874 2.12132 -2.12132 
C 1.55874 -2.683901 0.795609 -3 0 -3 
C -0.795609 -3 -1.55874 -2.683901 -2.12132 -2.12132 
C -2.683901 -1.55874 -3 -0.795609 -3 0 
C -3 0.795609 -2.683901 1.55874 -2.12132 2.12132 
C -1.55874 2.683901 -0.795609 3 0 3 
z
" id="m175fe0eead" style="stroke:#0000ff;"/>
    </defs>
    <g clip-path="url(#p039d06f67c)">
     <use style="fill:#0000ff;stroke:#0000ff;" x="114.723291" xlink:href="#m175fe0eead" y="356.818724"/>
     <use style="fill:#0000ff;stroke:#0000ff;" x="136.336456" xlink:href="#m175fe0eead" y="343.334486"/>
     <use style="fill:#0000ff;stroke:#0000ff;" x="150.071701" xlink:href="#m175fe0eead" y="342.357484"/>
     <use style="fill:#0000ff;stroke:#0000ff;" x="160.417947" xlink:href="#m175fe0eead" y="340.090774"/>
     <use style="fill:#0000ff;stroke:#0000ff;" x="168.843806" xlink:href="#m175fe0eead" y="335.307462"/>
     <use style="fill:#0000ff;stroke:#0000ff;" x="176.023434" xlink:href="#m175fe0eead" y="329.251128"/>
     <use style="fill:#0000ff;stroke:#0000ff;" x="182.325154" xlink:href="#m175fe0eead" y="326.141599"/>
     <use style="fill:#0000ff;stroke:#0000ff;" x="187.973295" xlink:href="#m175fe0eead" y="324.395326"/>
     <use style="fill:#0000ff;stroke:#0000ff;" x="193.115117" xlink:href="#m175fe0eead" y="321.987748"/>
     <use style="fill:#0000ff;stroke:#0000ff;" x="197.852763" xlink:href="#m175fe0eead" y="321.200455"/>
     <use style="fill:#0000ff;stroke:#0000ff;" x="202.260137" xlink:href="#m175fe0eead" y="320.564416"/>
     <use style="fill:#0000ff;stroke:#0000ff;" x="206.392536" xlink:href="#m175fe0eead" y="318.081986"/>
     <use style="fill:#0000ff;stroke:#0000ff;" x="210.292476" xlink:href="#m175fe0eead" y="315.870065"/>
     <use style="fill:#0000ff;stroke:#0000ff;" x="213.993401" xlink:href="#m175fe0eead" y="315.290658"/>
     <use style="fill:#0000ff;stroke:#0000ff;" x="217.522123" xlink:href="#m175fe0eead" y="313.556371"/>
     <use style="fill:#0000ff;stroke:#0000ff;" x="220.900497" xlink:href="#m175fe0eead" y="311.595991"/>
     <use style="fill:#0000ff;stroke:#0000ff;" x="224.146592" xlink:href="#m175fe0eead" y="309.818613"/>
     <use style="fill:#0000ff;stroke:#0000ff;" x="227.275535" xlink:href="#m175fe0eead" y="308.2812"/>
     <use style="fill:#0000ff;stroke:#0000ff;" x="230.300136" xlink:href="#m175fe0eead" y="307.6452"/>
     <use style="fill:#0000ff;stroke:#0000ff;" x="233.231347" xlink:href="#m175fe0eead" y="306.962005"/>
     <use style="fill:#0000ff;stroke:#0000ff;" x="236.07862" xlink:href="#m175fe0eead" y="305.832106"/>
     <use style="fill:#0000ff;stroke:#0000ff;" x="238.850178" xlink:href="#m175fe0eead" y="304.607544"/>
     <use style="fill:#0000ff;stroke:#0000ff;" x="241.55323" xlink:href="#m175fe0eead" y="303.422623"/>
     <use style="fill:#0000ff;stroke:#0000ff;" x="244.194141" xlink:href="#m175fe0eead" y="302.036521"/>
     <use style="fill:#0000ff;stroke:#0000ff;" x="246.778565" xlink:href="#m175fe0eead" y="301.161936"/>
     <use style="fill:#0000ff;stroke:#0000ff;" x="249.31156" xlink:href="#m175fe0eead" y="298.021501"/>
     <use style="fill:#0000ff;stroke:#0000ff;" x="251.797674" xlink:href="#m175fe0eead" y="296.809912"/>
     <use style="fill:#0000ff;stroke:#0000ff;" x="254.241017" xlink:href="#m175fe0eead" y="295.554258"/>
     <use style="fill:#0000ff;stroke:#0000ff;" x="256.64533" xlink:href="#m175fe0eead" y="294.719663"/>
     <use style="fill:#0000ff;stroke:#0000ff;" x="259.014028" xlink:href="#m175fe0eead" y="292.902688"/>
     <use style="fill:#0000ff;stroke:#0000ff;" x="261.350249" xlink:href="#m175fe0eead" y="291.603179"/>
     <use style="fill:#0000ff;stroke:#0000ff;" x="263.656888" xlink:href="#m175fe0eead" y="289.390013"/>
     <use style="fill:#0000ff;stroke:#0000ff;" x="265.936631" xlink:href="#m175fe0eead" y="288.812212"/>
     <use style="fill:#0000ff;stroke:#0000ff;" x="268.191979" xlink:href="#m175fe0eead" y="287.97087"/>
     <use style="fill:#0000ff;stroke:#0000ff;" x="270.425274" xlink:href="#m175fe0eead" y="284.812229"/>
     <use style="fill:#0000ff;stroke:#0000ff;" x="272.638718" xlink:href="#m175fe0eead" y="284.25535"/>
     <use style="fill:#0000ff;stroke:#0000ff;" x="274.834393" xlink:href="#m175fe0eead" y="283.657616"/>
     <use style="fill:#0000ff;stroke:#0000ff;" x="277.014274" xlink:href="#m175fe0eead" y="282.425631"/>
     <use style="fill:#0000ff;stroke:#0000ff;" x="279.180247" xlink:href="#m175fe0eead" y="282.272156"/>
     <use style="fill:#0000ff;stroke:#0000ff;" x="281.334119" xlink:href="#m175fe0eead" y="282.230211"/>
     <use style="fill:#0000ff;stroke:#0000ff;" x="283.477629" xlink:href="#m175fe0eead" y="276.404986"/>
     <use style="fill:#0000ff;stroke:#0000ff;" x="285.612463" xlink:href="#m175fe0eead" y="275.796911"/>
     <use style="fill:#0000ff;stroke:#0000ff;" x="287.740258" xlink:href="#m175fe0eead" y="275.57037"/>
     <use style="fill:#0000ff;stroke:#0000ff;" x="289.862616" xlink:href="#m175fe0eead" y="268.741978"/>
     <use style="fill:#0000ff;stroke:#0000ff;" x="291.981109" xlink:href="#m175fe0eead" y="267.788547"/>
     <use style="fill:#0000ff;stroke:#0000ff;" x="294.097293" xlink:href="#m175fe0eead" y="267.695001"/>
     <use style="fill:#0000ff;stroke:#0000ff;" x="296.212707" xlink:href="#m175fe0eead" y="267.42581"/>
     <use style="fill:#0000ff;stroke:#0000ff;" x="298.328891" xlink:href="#m175fe0eead" y="265.495521"/>
     <use style="fill:#0000ff;stroke:#0000ff;" x="300.447384" xlink:href="#m175fe0eead" y="265.036249"/>
     <use style="fill:#0000ff;stroke:#0000ff;" x="302.569742" xlink:href="#m175fe0eead" y="256.480371"/>
     <use style="fill:#0000ff;stroke:#0000ff;" x="304.697537" xlink:href="#m175fe0eead" y="255.207753"/>
     <use style="fill:#0000ff;stroke:#0000ff;" x="306.832371" xlink:href="#m175fe0eead" y="254.844471"/>
     <use style="fill:#0000ff;stroke:#0000ff;" x="308.975881" xlink:href="#m175fe0eead" y="251.308929"/>
     <use style="fill:#0000ff;stroke:#0000ff;" x="311.129753" xlink:href="#m175fe0eead" y="250.958976"/>
     <use style="fill:#0000ff;stroke:#0000ff;" x="313.295726" xlink:href="#m175fe0eead" y="244.25459"/>
     <use style="fill:#0000ff;stroke:#0000ff;" x="315.475607" xlink:href="#m175fe0eead" y="241.58283"/>
     <use style="fill:#0000ff;stroke:#0000ff;" x="317.671282" xlink:href="#m175fe0eead" y="239.191837"/>
     <use style="fill:#0000ff;stroke:#0000ff;" x="319.884726" xlink:href="#m175fe0eead" y="236.171923"/>
     <use style="fill:#0000ff;stroke:#0000ff;" x="322.118021" xlink:href="#m175fe0eead" y="233.311544"/>
     <use style="fill:#0000ff;stroke:#0000ff;" x="324.373369" xlink:href="#m175fe0eead" y="232.019393"/>
     <use style="fill:#0000ff;stroke:#0000ff;" x="326.653112" xlink:href="#m175fe0eead" y="230.304906"/>
     <use style="fill:#0000ff;stroke:#0000ff;" x="328.959751" xlink:href="#m175fe0eead" y="229.187632"/>
     <use style="fill:#0000ff;stroke:#0000ff;" x="331.295972" xlink:href="#m175fe0eead" y="227.228572"/>
     <use style="fill:#0000ff;stroke:#0000ff;" x="333.66467" xlink:href="#m175fe0eead" y="223.06523"/>
     <use style="fill:#0000ff;stroke:#0000ff;" x="336.068983" xlink:href="#m175fe0eead" y="212.075516"/>
     <use style="fill:#0000ff;stroke:#0000ff;" x="338.512326" xlink:href="#m175fe0eead" y="207.005085"/>
     <use style="fill:#0000ff;stroke:#0000ff;" x="340.99844" xlink:href="#m175fe0eead" y="199.53931"/>
     <use style="fill:#0000ff;stroke:#0000ff;" x="343.531435" xlink:href="#m175fe0eead" y="198.300828"/>
     <use style="fill:#0000ff;stroke:#0000ff;" x="346.115859" xlink:href="#m175fe0eead" y="196.726023"/>
     <use style="fill:#0000ff;stroke:#0000ff;" x="348.75677" xlink:href="#m175fe0eead" y="196.488026"/>
     <use style="fill:#0000ff;stroke:#0000ff;" x="351.459822" xlink:href="#m175fe0eead" y="194.764784"/>
     <use style="fill:#0000ff;stroke:#0000ff;" x="354.23138" xlink:href="#m175fe0eead" y="190.383992"/>
     <use style="fill:#0000ff;stroke:#0000ff;" x="357.078653" xlink:href="#m175fe0eead" y="182.318856"/>
     <use style="fill:#0000ff;stroke:#0000ff;" x="360.009864" xlink:href="#m175fe0eead" y="180.02741"/>
     <use style="fill:#0000ff;stroke:#0000ff;" x="363.034465" xlink:href="#m175fe0eead" y="158.265426"/>
     <use style="fill:#0000ff;stroke:#0000ff;" x="366.163408" xlink:href="#m175fe0eead" y="156.175335"/>
     <use style="fill:#0000ff;stroke:#0000ff;" x="369.409503" xlink:href="#m175fe0eead" y="154.30413"/>
     <use style="fill:#0000ff;stroke:#0000ff;" x="372.787877" xlink:href="#m175fe0eead" y="153.62844"/>
     <use style="fill:#0000ff;stroke:#0000ff;" x="376.316599" xlink:href="#m175fe0eead" y="147.423272"/>
     <use style="fill:#0000ff;stroke:#0000ff;" x="380.017524" xlink:href="#m175fe0eead" y="145.897992"/>
     <use style="fill:#0000ff;stroke:#0000ff;" x="383.917464" xlink:href="#m175fe0eead" y="130.766495"/>
     <use style="fill:#0000ff;stroke:#0000ff;" x="388.049863" xlink:href="#m175fe0eead" y="119.531281"/>
     <use style="fill:#0000ff;stroke:#0000ff;" x="392.457237" xlink:href="#m175fe0eead" y="112.712035"/>
     <use style="fill:#0000ff;stroke:#0000ff;" x="397.194883" xlink:href="#m175fe0eead" y="107.518791"/>
     <use style="fill:#0000ff;stroke:#0000ff;" x="402.336705" xlink:href="#m175fe0eead" y="102.828654"/>
     <use style="fill:#0000ff;stroke:#0000ff;" x="407.984846" xlink:href="#m175fe0eead" y="102.084285"/>
     <use style="fill:#0000ff;stroke:#0000ff;" x="414.286566" xlink:href="#m175fe0eead" y="88.170875"/>
     <use style="fill:#0000ff;stroke:#0000ff;" x="421.466194" xlink:href="#m175fe0eead" y="83.067287"/>
     <use style="fill:#0000ff;stroke:#0000ff;" x="429.892053" xlink:href="#m175fe0eead" y="71.677709"/>
     <use style="fill:#0000ff;stroke:#0000ff;" x="440.238299" xlink:href="#m175fe0eead" y="54.556024"/>
     <use style="fill:#0000ff;stroke:#0000ff;" x="453.973544" xlink:href="#m175fe0eead" y="46.706147"/>
     <use style="fill:#0000ff;stroke:#0000ff;" x="475.586709" xlink:href="#m175fe0eead" y="26.967273"/>
    </g>
   </g>
   <g id="line2d_10">
    <path clip-path="url(#p039d06f67c)" d="M 114.723291 422.312727 
L 136.336456 400.729485 
L 150.071701 387.013256 
L 160.417947 376.681334 
L 168.843806 368.267141 
L 176.023434 361.097452 
L 182.325154 354.804457 
L 187.973295 349.164136 
L 193.115117 344.029433 
L 197.852763 339.298346 
L 202.260137 334.897073 
L 206.392536 330.770396 
L 210.292476 326.875855 
L 213.993401 323.180054 
L 217.522123 319.656217 
L 220.900497 316.28252 
L 224.146592 313.04092 
L 227.275535 309.916308 
L 230.300136 306.895895 
L 233.231347 303.968742 
L 236.07862 301.125411 
L 238.850178 298.35769 
L 241.55323 295.658381 
L 244.194141 293.021126 
L 246.778565 290.44028 
L 249.31156 287.910792 
L 251.797674 285.42812 
L 254.241017 282.988159 
L 256.64533 280.587175 
L 259.014028 278.221757 
L 261.350249 275.88877 
L 263.656888 273.585324 
L 265.936631 271.308738 
L 268.191979 269.056512 
L 270.425274 266.82631 
L 272.638718 264.61593 
L 274.834393 262.423295 
L 277.014274 260.246431 
L 279.180247 258.083457 
L 281.334119 255.932567 
L 283.477629 253.792024 
L 285.612463 251.660147 
L 287.740258 249.535297 
L 289.862616 247.415878 
L 291.981109 245.300317 
L 294.097293 243.187064 
L 296.212707 241.074578 
L 298.328891 238.961324 
L 300.447384 236.845764 
L 302.569742 234.726344 
L 304.697537 232.601495 
L 306.832371 230.469617 
L 308.975881 228.329074 
L 311.129753 226.178185 
L 313.295726 224.01521 
L 315.475607 221.838347 
L 317.671282 219.645712 
L 319.884726 217.435332 
L 322.118021 215.205129 
L 324.373369 212.952904 
L 326.653112 210.676317 
L 328.959751 208.372871 
L 331.295972 206.039885 
L 333.66467 203.674466 
L 336.068983 201.273482 
L 338.512326 198.833521 
L 340.99844 196.35085 
L 343.531435 193.821362 
L 346.115859 191.240515 
L 348.75677 188.603261 
L 351.459822 185.903951 
L 354.23138 183.13623 
L 357.078653 180.2929 
L 360.009864 177.365747 
L 363.034465 174.345333 
L 366.163408 171.220722 
L 369.409503 167.979121 
L 372.787877 164.605425 
L 376.316599 161.081588 
L 380.017524 157.385787 
L 383.917464 153.491245 
L 388.049863 149.364568 
L 392.457237 144.963296 
L 397.194883 140.232209 
L 402.336705 135.097506 
L 407.984846 129.457185 
L 414.286566 123.164189 
L 421.466194 115.994501 
L 429.892053 107.580307 
L 440.238299 97.248386 
L 453.973544 83.532157 
L 475.586709 61.948914 
" style="fill:none;stroke:#ff0000;stroke-linecap:square;stroke-width:1.5;"/>
   </g>
   <g id="patch_3">
    <path d="M 71.955 442.08 
L 71.955 7.2 
" style="fill:none;stroke:#000000;stroke-linecap:square;stroke-linejoin:miter;stroke-width:0.8;"/>
   </g>
   <g id="patch_4">
    <path d="M 518.355 442.08 
L 518.355 7.2 
" style="fill:none;stroke:#000000;stroke-linecap:square;stroke-linejoin:miter;stroke-width:0.8;"/>
   </g>
   <g id="patch_5">
    <path d="M 71.955 442.08 
L 518.355 442.08 
" style="fill:none;stroke:#000000;stroke-linecap:square;stroke-linejoin:miter;stroke-width:0.8;"/>
   </g>
   <g id="patch_6">
    <path d="M 71.955 7.2 
L 518.355 7.2 
" style="fill:none;stroke:#000000;stroke-linecap:square;stroke-linejoin:miter;stroke-width:0.8;"/>
   </g>
  </g>
 </g>
 <defs>
  <clipPath id="p039d06f67c">
   <rect height="434.88" width="446.4" x="71.955" y="7.2"/>
  </clipPath>
 </defs>
</svg>
