<?xml version="1.0" encoding="utf-8" standalone="no"?>
<!DOCTYPE svg PUBLIC "-//W3C//DTD SVG 1.1//EN"
  "http://www.w3.org/Graphics/SVG/1.1/DTD/svg11.dtd">
<!-- Created with matplotlib (https://matplotlib.org/) -->
<svg height="558.471366pt" version="1.1" viewBox="0 0 531.717812 558.471366" width="531.717812pt" xmlns="http://www.w3.org/2000/svg" xmlns:xlink="http://www.w3.org/1999/xlink">
 <metadata>
  <rdf:RDF xmlns:cc="http://creativecommons.org/ns#" xmlns:dc="http://purl.org/dc/elements/1.1/" xmlns:rdf="http://www.w3.org/1999/02/22-rdf-syntax-ns#">
   <cc:Work>
    <dc:type rdf:resource="http://purl.org/dc/dcmitype/StillImage"/>
    <dc:date>2022-04-27T17:17:17.848152</dc:date>
    <dc:format>image/svg+xml</dc:format>
    <dc:creator>
     <cc:Agent>
      <dc:title>Matplotlib v3.3.2, https://matplotlib.org/</dc:title>
     </cc:Agent>
    </dc:creator>
   </cc:Work>
  </rdf:RDF>
 </metadata>
 <defs>
  <style type="text/css">*{stroke-linecap:butt;stroke-linejoin:round;}</style>
 </defs>
 <g id="figure_1">
  <g id="patch_1">
   <path d="M 0 558.471366 
L 531.717812 558.471366 
L 531.717812 0 
L 0 0 
z
" style="fill:#ffffff;"/>
  </g>
  <g id="axes_1">
   <g id="patch_2">
    <path d="M 78.117813 451.385156 
L 524.517812 451.385156 
L 524.517812 16.505156 
L 78.117813 16.505156 
z
" style="fill:#ffffff;"/>
   </g>
   <g id="PolyCollection_1">
    <defs>
     <path d="M 123.367771 -104.641007 
L 122.147854 -104.641007 
L 121.987496 -107.596722 
L 121.794426 -110.552438 
L 121.564583 -113.508154 
L 121.29405 -116.463869 
L 120.979235 -119.419585 
L 120.617066 -122.375301 
L 120.205211 -125.331016 
L 119.742283 -128.286732 
L 119.228044 -131.242448 
L 118.663588 -134.198163 
L 118.051476 -137.153879 
L 117.395827 -140.109595 
L 116.702347 -143.06531 
L 115.978283 -146.021026 
L 115.232305 -148.976742 
L 114.474311 -151.932457 
L 113.715159 -154.888173 
L 112.966339 -157.843888 
L 112.239596 -160.799604 
L 111.546524 -163.75532 
L 110.898154 -166.711035 
L 110.304554 -169.666751 
L 109.774467 -172.622467 
L 109.315008 -175.578182 
L 108.931439 -178.533898 
L 108.627023 -181.489614 
L 108.402988 -184.445329 
L 108.258569 -187.401045 
L 108.191154 -190.356761 
L 108.1965 -193.312476 
L 108.269014 -196.268192 
L 108.402069 -199.223908 
L 108.588345 -202.179623 
L 108.82017 -205.135339 
L 109.089825 -208.091054 
L 109.389832 -211.04677 
L 109.713168 -214.002486 
L 110.053446 -216.958201 
L 110.405016 -219.913917 
L 110.763027 -222.869633 
L 111.123436 -225.825348 
L 111.482971 -228.781064 
L 111.839081 -231.73678 
L 112.189858 -234.692495 
L 112.533953 -237.648211 
L 112.870498 -240.603927 
L 113.199027 -243.559642 
L 113.519408 -246.515358 
L 113.831776 -249.471074 
L 114.136485 -252.426789 
L 114.434047 -255.382505 
L 114.725086 -258.338221 
L 115.010286 -261.293936 
L 115.290334 -264.249652 
L 115.565873 -267.205367 
L 115.837445 -270.161083 
L 116.105446 -273.116799 
L 116.370089 -276.072514 
L 116.631372 -279.02823 
L 116.889071 -281.983946 
L 117.142742 -284.939661 
L 117.391748 -287.895377 
L 117.635292 -290.851093 
L 117.872479 -293.806808 
L 118.102381 -296.762524 
L 118.324106 -299.71824 
L 118.536875 -302.673955 
L 118.740086 -305.629671 
L 118.933375 -308.585387 
L 119.116658 -311.541102 
L 119.290151 -314.496818 
L 119.454371 -317.452533 
L 119.61012 -320.408249 
L 119.75844 -323.363965 
L 119.900551 -326.31968 
L 120.037781 -329.275396 
L 120.171479 -332.231112 
L 120.302932 -335.186827 
L 120.433282 -338.142543 
L 120.563454 -341.098259 
L 120.694098 -344.053974 
L 120.825556 -347.00969 
L 120.957844 -349.965406 
L 121.090658 -352.921121 
L 121.223405 -355.876837 
L 121.355253 -358.832553 
L 121.485185 -361.788268 
L 121.612077 -364.743984 
L 121.734766 -367.6997 
L 121.852128 -370.655415 
L 121.963135 -373.611131 
L 122.066911 -376.566846 
L 122.162775 -379.522562 
L 122.250258 -382.478278 
L 122.329117 -385.433993 
L 122.399327 -388.389709 
L 122.461064 -391.345425 
L 122.514678 -394.30114 
L 122.560661 -397.256856 
L 122.954964 -397.256856 
L 122.954964 -397.256856 
L 123.000947 -394.30114 
L 123.054561 -391.345425 
L 123.116298 -388.389709 
L 123.186508 -385.433993 
L 123.265367 -382.478278 
L 123.35285 -379.522562 
L 123.448714 -376.566846 
L 123.55249 -373.611131 
L 123.663497 -370.655415 
L 123.780859 -367.6997 
L 123.903548 -364.743984 
L 124.03044 -361.788268 
L 124.160372 -358.832553 
L 124.29222 -355.876837 
L 124.424967 -352.921121 
L 124.557781 -349.965406 
L 124.690069 -347.00969 
L 124.821527 -344.053974 
L 124.952171 -341.098259 
L 125.082343 -338.142543 
L 125.212693 -335.186827 
L 125.344146 -332.231112 
L 125.477844 -329.275396 
L 125.615074 -326.31968 
L 125.757185 -323.363965 
L 125.905505 -320.408249 
L 126.061254 -317.452533 
L 126.225474 -314.496818 
L 126.398967 -311.541102 
L 126.58225 -308.585387 
L 126.775539 -305.629671 
L 126.97875 -302.673955 
L 127.191519 -299.71824 
L 127.413244 -296.762524 
L 127.643146 -293.806808 
L 127.880333 -290.851093 
L 128.123877 -287.895377 
L 128.372883 -284.939661 
L 128.626554 -281.983946 
L 128.884253 -279.02823 
L 129.145536 -276.072514 
L 129.410179 -273.116799 
L 129.67818 -270.161083 
L 129.949752 -267.205367 
L 130.225291 -264.249652 
L 130.505339 -261.293936 
L 130.790539 -258.338221 
L 131.081578 -255.382505 
L 131.37914 -252.426789 
L 131.683849 -249.471074 
L 131.996217 -246.515358 
L 132.316598 -243.559642 
L 132.645127 -240.603927 
L 132.981672 -237.648211 
L 133.325767 -234.692495 
L 133.676544 -231.73678 
L 134.032654 -228.781064 
L 134.392189 -225.825348 
L 134.752598 -222.869633 
L 135.110609 -219.913917 
L 135.462179 -216.958201 
L 135.802457 -214.002486 
L 136.125793 -211.04677 
L 136.4258 -208.091054 
L 136.695455 -205.135339 
L 136.92728 -202.179623 
L 137.113556 -199.223908 
L 137.246611 -196.268192 
L 137.319125 -193.312476 
L 137.324471 -190.356761 
L 137.257056 -187.401045 
L 137.112637 -184.445329 
L 136.888602 -181.489614 
L 136.584186 -178.533898 
L 136.200617 -175.578182 
L 135.741158 -172.622467 
L 135.211071 -169.666751 
L 134.617471 -166.711035 
L 133.969101 -163.75532 
L 133.276029 -160.799604 
L 132.549286 -157.843888 
L 131.800466 -154.888173 
L 131.041314 -151.932457 
L 130.28332 -148.976742 
L 129.537342 -146.021026 
L 128.813278 -143.06531 
L 128.119798 -140.109595 
L 127.464149 -137.153879 
L 126.852037 -134.198163 
L 126.287581 -131.242448 
L 125.773342 -128.286732 
L 125.310414 -125.331016 
L 124.898559 -122.375301 
L 124.53639 -119.419585 
L 124.221575 -116.463869 
L 123.951042 -113.508154 
L 123.721199 -110.552438 
L 123.528129 -107.596722 
L 123.367771 -104.641007 
z
" id="m43cd682d23" style="stroke:#6f6f6f;stroke-width:1.5;"/>
    </defs>
    <g clip-path="url(#p3b060058db)">
     <use style="fill:#94c9de;stroke:#6f6f6f;stroke-width:1.5;" x="0" xlink:href="#m43cd682d23" y="558.471366"/>
    </g>
   </g>
   <g id="PolyCollection_2">
    <defs>
     <path d="M 212.510694 -105.339166 
L 211.564931 -105.339166 
L 211.434215 -107.857975 
L 211.274621 -110.376784 
L 211.081829 -112.895593 
L 210.851383 -115.414401 
L 210.578826 -117.93321 
L 210.259845 -120.452019 
L 209.890447 -122.970828 
L 209.467149 -125.489636 
L 208.987178 -128.008445 
L 208.448674 -130.527254 
L 207.850884 -133.046063 
L 207.194339 -135.564871 
L 206.481 -138.08368 
L 205.714372 -140.602489 
L 204.899557 -143.121298 
L 204.04327 -145.640106 
L 203.153778 -148.158915 
L 202.240789 -150.677724 
L 201.315267 -153.196533 
L 200.389198 -155.715342 
L 199.475293 -158.23415 
L 198.586654 -160.752959 
L 197.736402 -163.271768 
L 196.937285 -165.790577 
L 196.201287 -168.309385 
L 195.539245 -170.828194 
L 194.960499 -173.347003 
L 194.472595 -175.865812 
L 194.081042 -178.38462 
L 193.789157 -180.903429 
L 193.597996 -183.422238 
L 193.50638 -185.941047 
L 193.511019 -188.459855 
L 193.606727 -190.978664 
L 193.786722 -193.497473 
L 194.042984 -196.016282 
L 194.366667 -198.53509 
L 194.748522 -201.053899 
L 195.179309 -203.572708 
L 195.650187 -206.091517 
L 196.153028 -208.610325 
L 196.680666 -211.129134 
L 197.227043 -213.647943 
L 197.787263 -216.166752 
L 198.357547 -218.68556 
L 198.935102 -221.204369 
L 199.517922 -223.723178 
L 200.104536 -226.241987 
L 200.693739 -228.760795 
L 201.28432 -231.279604 
L 201.874818 -233.798413 
L 202.463321 -236.317222 
L 203.047331 -238.83603 
L 203.623694 -241.354839 
L 204.188609 -243.873648 
L 204.737702 -246.392457 
L 205.266172 -248.911265 
L 205.76898 -251.430074 
L 206.241081 -253.948883 
L 206.677676 -256.467692 
L 207.074468 -258.986501 
L 207.427909 -261.505309 
L 207.735415 -264.024118 
L 207.995548 -266.542927 
L 208.208145 -269.061736 
L 208.374386 -271.580544 
L 208.496804 -274.099353 
L 208.579226 -276.618162 
L 208.62665 -279.136971 
L 208.645061 -281.655779 
L 208.6412 -284.174588 
L 208.622286 -286.693397 
L 208.59572 -289.212206 
L 208.568769 -291.731014 
L 208.548261 -294.249823 
L 208.540307 -296.768632 
L 208.550056 -299.287441 
L 208.581506 -301.806249 
L 208.63738 -304.325058 
L 208.719066 -306.843867 
L 208.826635 -309.362676 
L 208.958923 -311.881484 
L 209.113668 -314.400293 
L 209.287703 -316.919102 
L 209.477181 -319.437911 
L 209.677812 -321.956719 
L 209.885111 -324.475528 
L 210.094626 -326.994337 
L 210.302146 -329.513146 
L 210.50387 -332.031954 
L 210.696534 -334.550763 
L 210.877495 -337.069572 
L 211.044773 -339.588381 
L 211.197048 -342.107189 
L 211.333622 -344.625998 
L 211.454362 -347.144807 
L 211.559615 -349.663616 
L 211.650116 -352.182424 
L 211.72689 -354.701233 
L 212.348735 -354.701233 
L 212.348735 -354.701233 
L 212.425509 -352.182424 
L 212.51601 -349.663616 
L 212.621263 -347.144807 
L 212.742003 -344.625998 
L 212.878577 -342.107189 
L 213.030852 -339.588381 
L 213.19813 -337.069572 
L 213.379091 -334.550763 
L 213.571755 -332.031954 
L 213.773479 -329.513146 
L 213.980999 -326.994337 
L 214.190514 -324.475528 
L 214.397813 -321.956719 
L 214.598444 -319.437911 
L 214.787922 -316.919102 
L 214.961957 -314.400293 
L 215.116702 -311.881484 
L 215.24899 -309.362676 
L 215.356559 -306.843867 
L 215.438245 -304.325058 
L 215.494119 -301.806249 
L 215.525569 -299.287441 
L 215.535318 -296.768632 
L 215.527364 -294.249823 
L 215.506856 -291.731014 
L 215.479905 -289.212206 
L 215.453339 -286.693397 
L 215.434425 -284.174588 
L 215.430564 -281.655779 
L 215.448975 -279.136971 
L 215.496399 -276.618162 
L 215.578821 -274.099353 
L 215.701239 -271.580544 
L 215.86748 -269.061736 
L 216.080077 -266.542927 
L 216.34021 -264.024118 
L 216.647716 -261.505309 
L 217.001157 -258.986501 
L 217.397949 -256.467692 
L 217.834544 -253.948883 
L 218.306645 -251.430074 
L 218.809453 -248.911265 
L 219.337923 -246.392457 
L 219.887016 -243.873648 
L 220.451931 -241.354839 
L 221.028294 -238.83603 
L 221.612304 -236.317222 
L 222.200807 -233.798413 
L 222.791305 -231.279604 
L 223.381886 -228.760795 
L 223.971089 -226.241987 
L 224.557703 -223.723178 
L 225.140523 -221.204369 
L 225.718078 -218.68556 
L 226.288362 -216.166752 
L 226.848582 -213.647943 
L 227.394959 -211.129134 
L 227.922597 -208.610325 
L 228.425438 -206.091517 
L 228.896316 -203.572708 
L 229.327103 -201.053899 
L 229.708958 -198.53509 
L 230.032641 -196.016282 
L 230.288903 -193.497473 
L 230.468898 -190.978664 
L 230.564606 -188.459855 
L 230.569245 -185.941047 
L 230.477629 -183.422238 
L 230.286468 -180.903429 
L 229.994583 -178.38462 
L 229.60303 -175.865812 
L 229.115126 -173.347003 
L 228.53638 -170.828194 
L 227.874338 -168.309385 
L 227.13834 -165.790577 
L 226.339223 -163.271768 
L 225.488971 -160.752959 
L 224.600332 -158.23415 
L 223.686427 -155.715342 
L 222.760358 -153.196533 
L 221.834836 -150.677724 
L 220.921847 -148.158915 
L 220.032355 -145.640106 
L 219.176068 -143.121298 
L 218.361253 -140.602489 
L 217.594625 -138.08368 
L 216.881286 -135.564871 
L 216.224741 -133.046063 
L 215.626951 -130.527254 
L 215.088447 -128.008445 
L 214.608476 -125.489636 
L 214.185178 -122.970828 
L 213.81578 -120.452019 
L 213.496799 -117.93321 
L 213.224242 -115.414401 
L 212.993796 -112.895593 
L 212.801004 -110.376784 
L 212.64141 -107.857975 
L 212.510694 -105.339166 
z
" id="m0048c3659c" style="stroke:#6f6f6f;stroke-width:1.5;"/>
    </defs>
    <g clip-path="url(#p3b060058db)">
     <use style="fill:#94c9de;stroke:#6f6f6f;stroke-width:1.5;" x="0" xlink:href="#m0048c3659c" y="558.471366"/>
    </g>
   </g>
   <g id="PolyCollection_3">
    <defs>
     <path d="M 301.838684 -126.353607 
L 300.796941 -126.353607 
L 300.655603 -128.763717 
L 300.483724 -131.173826 
L 300.27688 -133.583936 
L 300.030545 -135.994045 
L 299.740216 -138.404155 
L 299.401567 -140.814264 
L 299.01062 -143.224373 
L 298.563935 -145.634483 
L 298.058797 -148.044592 
L 297.493417 -150.454702 
L 296.86711 -152.864811 
L 296.180464 -155.27492 
L 295.435483 -157.68503 
L 294.635689 -160.095139 
L 293.786196 -162.505249 
L 292.893728 -164.915358 
L 291.966595 -167.325467 
L 291.014611 -169.735577 
L 290.048966 -172.145686 
L 289.08204 -174.555796 
L 288.127169 -176.965905 
L 287.198364 -179.376014 
L 286.309979 -181.786124 
L 285.476352 -184.196233 
L 284.711407 -186.606343 
L 284.028248 -189.016452 
L 283.438736 -191.426561 
L 282.953093 -193.836671 
L 282.579524 -196.24678 
L 282.323895 -198.65689 
L 282.189481 -201.066999 
L 282.176795 -203.477109 
L 282.283526 -205.887218 
L 282.50458 -208.297327 
L 282.832241 -210.707437 
L 283.256437 -213.117546 
L 283.765104 -215.527656 
L 284.344629 -217.937765 
L 284.980355 -220.347874 
L 285.657101 -222.757984 
L 286.359688 -225.168093 
L 287.073439 -227.578203 
L 287.784618 -229.988312 
L 288.4808 -232.398421 
L 289.151158 -234.808531 
L 289.786656 -237.21864 
L 290.380158 -239.62875 
L 290.926451 -242.038859 
L 291.422206 -244.448968 
L 291.865877 -246.859078 
L 292.257561 -249.269187 
L 292.598829 -251.679297 
L 292.892545 -254.089406 
L 293.142662 -256.499515 
L 293.354027 -258.909625 
L 293.532174 -261.319734 
L 293.683113 -263.729844 
L 293.813124 -266.139953 
L 293.928544 -268.550063 
L 294.035558 -270.960172 
L 294.140002 -273.370281 
L 294.247168 -275.780391 
L 294.36165 -278.1905 
L 294.487207 -280.60061 
L 294.626677 -283.010719 
L 294.781931 -285.420828 
L 294.953881 -287.830938 
L 295.142539 -290.241047 
L 295.347117 -292.651157 
L 295.566165 -295.061266 
L 295.797736 -297.471375 
L 296.039555 -299.881485 
L 296.289195 -302.291594 
L 296.544225 -304.701704 
L 296.80234 -307.111813 
L 297.061452 -309.521922 
L 297.319748 -311.932032 
L 297.575705 -314.342141 
L 297.828074 -316.752251 
L 298.075849 -319.16236 
L 298.318203 -321.572469 
L 298.554431 -323.982579 
L 298.783892 -326.392688 
L 299.005958 -328.802798 
L 299.219986 -331.212907 
L 299.425299 -333.623017 
L 299.621195 -336.033126 
L 299.806964 -338.443235 
L 299.981921 -340.853345 
L 300.145446 -343.263454 
L 300.297022 -345.673564 
L 300.436277 -348.083673 
L 300.563006 -350.493782 
L 300.677198 -352.903892 
L 300.779034 -355.314001 
L 300.868888 -357.724111 
L 300.947307 -360.13422 
L 301.014986 -362.544329 
L 301.072737 -364.954439 
L 301.562888 -364.954439 
L 301.562888 -364.954439 
L 301.620639 -362.544329 
L 301.688318 -360.13422 
L 301.766737 -357.724111 
L 301.856591 -355.314001 
L 301.958427 -352.903892 
L 302.072619 -350.493782 
L 302.199348 -348.083673 
L 302.338603 -345.673564 
L 302.490179 -343.263454 
L 302.653704 -340.853345 
L 302.828661 -338.443235 
L 303.01443 -336.033126 
L 303.210326 -333.623017 
L 303.415639 -331.212907 
L 303.629667 -328.802798 
L 303.851733 -326.392688 
L 304.081194 -323.982579 
L 304.317422 -321.572469 
L 304.559776 -319.16236 
L 304.807551 -316.752251 
L 305.05992 -314.342141 
L 305.315877 -311.932032 
L 305.574173 -309.521922 
L 305.833285 -307.111813 
L 306.0914 -304.701704 
L 306.34643 -302.291594 
L 306.59607 -299.881485 
L 306.837889 -297.471375 
L 307.06946 -295.061266 
L 307.288508 -292.651157 
L 307.493086 -290.241047 
L 307.681744 -287.830938 
L 307.853694 -285.420828 
L 308.008948 -283.010719 
L 308.148418 -280.60061 
L 308.273975 -278.1905 
L 308.388457 -275.780391 
L 308.495623 -273.370281 
L 308.600067 -270.960172 
L 308.707081 -268.550063 
L 308.822501 -266.139953 
L 308.952512 -263.729844 
L 309.103451 -261.319734 
L 309.281598 -258.909625 
L 309.492963 -256.499515 
L 309.74308 -254.089406 
L 310.036796 -251.679297 
L 310.378064 -249.269187 
L 310.769748 -246.859078 
L 311.213419 -244.448968 
L 311.709174 -242.038859 
L 312.255467 -239.62875 
L 312.848969 -237.21864 
L 313.484467 -234.808531 
L 314.154825 -232.398421 
L 314.851007 -229.988312 
L 315.562186 -227.578203 
L 316.275937 -225.168093 
L 316.978524 -222.757984 
L 317.65527 -220.347874 
L 318.290996 -217.937765 
L 318.870521 -215.527656 
L 319.379188 -213.117546 
L 319.803384 -210.707437 
L 320.131045 -208.297327 
L 320.352099 -205.887218 
L 320.45883 -203.477109 
L 320.446144 -201.066999 
L 320.31173 -198.65689 
L 320.056101 -196.24678 
L 319.682532 -193.836671 
L 319.196889 -191.426561 
L 318.607377 -189.016452 
L 317.924218 -186.606343 
L 317.159273 -184.196233 
L 316.325646 -181.786124 
L 315.437261 -179.376014 
L 314.508456 -176.965905 
L 313.553585 -174.555796 
L 312.586659 -172.145686 
L 311.621014 -169.735577 
L 310.66903 -167.325467 
L 309.741897 -164.915358 
L 308.849429 -162.505249 
L 307.999936 -160.095139 
L 307.200142 -157.68503 
L 306.455161 -155.27492 
L 305.768515 -152.864811 
L 305.142208 -150.454702 
L 304.576828 -148.044592 
L 304.07169 -145.634483 
L 303.625005 -143.224373 
L 303.234058 -140.814264 
L 302.895409 -138.404155 
L 302.60508 -135.994045 
L 302.358745 -133.583936 
L 302.151901 -131.173826 
L 301.980022 -128.763717 
L 301.838684 -126.353607 
z
" id="m46815e7194" style="stroke:#6f6f6f;stroke-width:1.5;"/>
    </defs>
    <g clip-path="url(#p3b060058db)">
     <use style="fill:#94c9de;stroke:#6f6f6f;stroke-width:1.5;" x="0" xlink:href="#m46815e7194" y="558.471366"/>
    </g>
   </g>
   <g id="PolyCollection_4">
    <defs>
     <path d="M 390.969719 -138.630912 
L 390.225906 -138.630912 
L 390.136803 -141.361079 
L 390.031095 -144.091246 
L 389.906885 -146.821412 
L 389.762322 -149.551579 
L 389.595673 -152.281746 
L 389.405391 -155.011913 
L 389.190188 -157.742079 
L 388.949111 -160.472246 
L 388.68161 -163.202413 
L 388.387597 -165.93258 
L 388.067499 -168.662746 
L 387.722285 -171.392913 
L 387.35348 -174.12308 
L 386.963161 -176.853246 
L 386.553917 -179.583413 
L 386.128801 -182.31358 
L 385.691253 -185.043747 
L 385.245005 -187.773913 
L 384.793978 -190.50408 
L 384.342162 -193.234247 
L 383.893506 -195.964414 
L 383.451795 -198.69458 
L 383.020558 -201.424747 
L 382.602973 -204.154914 
L 382.201802 -206.88508 
L 381.819352 -209.615247 
L 381.457451 -212.345414 
L 381.117458 -215.075581 
L 380.800288 -217.805747 
L 380.506464 -220.535914 
L 380.236172 -223.266081 
L 379.989336 -225.996248 
L 379.765683 -228.726414 
L 379.564813 -231.456581 
L 379.386249 -234.186748 
L 379.229486 -236.916914 
L 379.094008 -239.647081 
L 378.979298 -242.377248 
L 378.884826 -245.107415 
L 378.810024 -247.837581 
L 378.754251 -250.567748 
L 378.716755 -253.297915 
L 378.696636 -256.028082 
L 378.692814 -258.758248 
L 378.704021 -261.488415 
L 378.728796 -264.218582 
L 378.765515 -266.948749 
L 378.812434 -269.678915 
L 378.867759 -272.409082 
L 378.929723 -275.139249 
L 378.996683 -277.869415 
L 379.067217 -280.599582 
L 379.140222 -283.329749 
L 379.214993 -286.059916 
L 379.291292 -288.790082 
L 379.36939 -291.520249 
L 379.450077 -294.250416 
L 379.53465 -296.980583 
L 379.624861 -299.710749 
L 379.722843 -302.440916 
L 379.831013 -305.171083 
L 379.95195 -307.901249 
L 380.088271 -310.631416 
L 380.242498 -313.361583 
L 380.416932 -316.09175 
L 380.613533 -318.821916 
L 380.833823 -321.552083 
L 381.078805 -324.28225 
L 381.348906 -327.012417 
L 381.643948 -329.742583 
L 381.963139 -332.47275 
L 382.305093 -335.202917 
L 382.667867 -337.933083 
L 383.049015 -340.66325 
L 383.445663 -343.393417 
L 383.854585 -346.123584 
L 384.272296 -348.85375 
L 384.695146 -351.583917 
L 385.119409 -354.314084 
L 385.541377 -357.044251 
L 385.957452 -359.774417 
L 386.364217 -362.504584 
L 386.758519 -365.234751 
L 387.137522 -367.964918 
L 387.498761 -370.695084 
L 387.84018 -373.425251 
L 388.160155 -376.155418 
L 388.457507 -378.885584 
L 388.731496 -381.615751 
L 388.981811 -384.345918 
L 389.208539 -387.076085 
L 389.412135 -389.806251 
L 389.593371 -392.536418 
L 389.753295 -395.266585 
L 389.893171 -397.996752 
L 390.014428 -400.726918 
L 390.118606 -403.457085 
L 390.207308 -406.187252 
L 390.28215 -408.917418 
L 390.913475 -408.917418 
L 390.913475 -408.917418 
L 390.988317 -406.187252 
L 391.077019 -403.457085 
L 391.181197 -400.726918 
L 391.302454 -397.996752 
L 391.44233 -395.266585 
L 391.602254 -392.536418 
L 391.78349 -389.806251 
L 391.987086 -387.076085 
L 392.213814 -384.345918 
L 392.464129 -381.615751 
L 392.738118 -378.885584 
L 393.03547 -376.155418 
L 393.355445 -373.425251 
L 393.696864 -370.695084 
L 394.058103 -367.964918 
L 394.437106 -365.234751 
L 394.831408 -362.504584 
L 395.238173 -359.774417 
L 395.654248 -357.044251 
L 396.076216 -354.314084 
L 396.500479 -351.583917 
L 396.923329 -348.85375 
L 397.34104 -346.123584 
L 397.749962 -343.393417 
L 398.14661 -340.66325 
L 398.527758 -337.933083 
L 398.890532 -335.202917 
L 399.232486 -332.47275 
L 399.551677 -329.742583 
L 399.846719 -327.012417 
L 400.11682 -324.28225 
L 400.361802 -321.552083 
L 400.582092 -318.821916 
L 400.778693 -316.09175 
L 400.953127 -313.361583 
L 401.107354 -310.631416 
L 401.243675 -307.901249 
L 401.364612 -305.171083 
L 401.472782 -302.440916 
L 401.570764 -299.710749 
L 401.660975 -296.980583 
L 401.745548 -294.250416 
L 401.826235 -291.520249 
L 401.904333 -288.790082 
L 401.980632 -286.059916 
L 402.055403 -283.329749 
L 402.128408 -280.599582 
L 402.198942 -277.869415 
L 402.265902 -275.139249 
L 402.327866 -272.409082 
L 402.383191 -269.678915 
L 402.43011 -266.948749 
L 402.466829 -264.218582 
L 402.491604 -261.488415 
L 402.502811 -258.758248 
L 402.498989 -256.028082 
L 402.47887 -253.297915 
L 402.441374 -250.567748 
L 402.385601 -247.837581 
L 402.310799 -245.107415 
L 402.216327 -242.377248 
L 402.101617 -239.647081 
L 401.966139 -236.916914 
L 401.809376 -234.186748 
L 401.630812 -231.456581 
L 401.429942 -228.726414 
L 401.206289 -225.996248 
L 400.959453 -223.266081 
L 400.689161 -220.535914 
L 400.395337 -217.805747 
L 400.078167 -215.075581 
L 399.738174 -212.345414 
L 399.376273 -209.615247 
L 398.993823 -206.88508 
L 398.592652 -204.154914 
L 398.175067 -201.424747 
L 397.74383 -198.69458 
L 397.302119 -195.964414 
L 396.853463 -193.234247 
L 396.401647 -190.50408 
L 395.95062 -187.773913 
L 395.504372 -185.043747 
L 395.066824 -182.31358 
L 394.641708 -179.583413 
L 394.232464 -176.853246 
L 393.842145 -174.12308 
L 393.47334 -171.392913 
L 393.128126 -168.662746 
L 392.808028 -165.93258 
L 392.514015 -163.202413 
L 392.246514 -160.472246 
L 392.005437 -157.742079 
L 391.790234 -155.011913 
L 391.599952 -152.281746 
L 391.433303 -149.551579 
L 391.28874 -146.821412 
L 391.16453 -144.091246 
L 391.058822 -141.361079 
L 390.969719 -138.630912 
z
" id="m7d40a03432" style="stroke:#6f6f6f;stroke-width:1.5;"/>
    </defs>
    <g clip-path="url(#p3b060058db)">
     <use style="fill:#94c9de;stroke:#6f6f6f;stroke-width:1.5;" x="0" xlink:href="#m7d40a03432" y="558.471366"/>
    </g>
   </g>
   <g id="PolyCollection_5">
    <defs>
     <path d="M 480.961743 -145.638251 
L 478.793882 -145.638251 
L 478.504401 -146.962247 
L 478.153503 -148.286244 
L 477.732575 -149.61024 
L 477.232891 -150.934236 
L 476.645895 -152.258232 
L 475.963529 -153.582229 
L 475.178604 -154.906225 
L 474.285195 -156.230221 
L 473.27905 -157.554217 
L 472.157982 -158.878213 
L 470.922241 -160.20221 
L 469.574821 -161.526206 
L 468.121697 -162.850202 
L 466.571964 -164.174198 
L 464.93787 -165.498195 
L 463.234717 -166.822191 
L 461.480647 -168.146187 
L 459.696298 -169.470183 
L 457.904351 -170.794179 
L 456.128981 -172.118176 
L 454.395231 -173.442172 
L 452.728342 -174.766168 
L 451.153062 -176.090164 
L 449.69297 -177.41416 
L 448.369832 -178.738157 
L 447.203025 -180.062153 
L 446.209041 -181.386149 
L 445.40109 -182.710145 
L 444.78881 -184.034142 
L 444.378089 -185.358138 
L 444.170995 -186.682134 
L 444.165813 -188.00613 
L 444.357181 -189.330126 
L 444.736316 -190.654123 
L 445.291316 -191.978119 
L 446.007536 -193.302115 
L 446.86802 -194.626111 
L 447.853982 -195.950107 
L 448.945325 -197.274104 
L 450.121188 -198.5981 
L 451.360503 -199.922096 
L 452.642543 -201.246092 
L 453.947461 -202.570089 
L 455.256779 -203.894085 
L 456.55382 -205.218081 
L 457.824059 -206.542077 
L 459.055382 -207.866073 
L 460.238222 -209.19007 
L 461.365589 -210.514066 
L 462.432968 -211.838062 
L 463.438104 -213.162058 
L 464.380687 -214.486055 
L 465.261955 -215.810051 
L 466.08425 -217.134047 
L 466.850548 -218.458043 
L 467.564015 -219.782039 
L 468.227607 -221.106036 
L 468.843757 -222.430032 
L 469.414167 -223.754028 
L 469.939713 -225.078024 
L 470.42049 -226.40202 
L 470.855959 -227.726017 
L 471.245204 -229.050013 
L 471.587264 -230.374009 
L 471.8815 -231.698005 
L 472.127966 -233.022002 
L 472.327751 -234.345998 
L 472.483244 -235.669994 
L 472.598301 -236.99399 
L 472.6783 -238.317986 
L 472.730058 -239.641983 
L 472.761631 -240.965979 
L 472.781991 -242.289975 
L 472.800625 -243.613971 
L 472.827063 -244.937967 
L 472.870395 -246.261964 
L 472.938791 -247.58596 
L 473.039077 -248.909956 
L 473.176395 -250.233952 
L 473.353958 -251.557949 
L 473.572937 -252.881945 
L 473.832463 -254.205941 
L 474.129755 -255.529937 
L 474.460346 -256.853933 
L 474.818403 -258.17793 
L 475.197095 -259.501926 
L 475.589001 -260.825922 
L 475.986511 -262.149918 
L 476.3822 -263.473915 
L 476.769168 -264.797911 
L 477.141301 -266.121907 
L 477.493467 -267.445903 
L 477.821636 -268.769899 
L 478.122923 -270.093896 
L 478.395567 -271.417892 
L 478.63885 -272.741888 
L 478.85298 -274.065884 
L 479.038942 -275.38988 
L 479.198331 -276.713877 
L 480.557294 -276.713877 
L 480.557294 -276.713877 
L 480.716683 -275.38988 
L 480.902645 -274.065884 
L 481.116775 -272.741888 
L 481.360058 -271.417892 
L 481.632702 -270.093896 
L 481.933989 -268.769899 
L 482.262158 -267.445903 
L 482.614324 -266.121907 
L 482.986457 -264.797911 
L 483.373425 -263.473915 
L 483.769114 -262.149918 
L 484.166624 -260.825922 
L 484.55853 -259.501926 
L 484.937222 -258.17793 
L 485.295279 -256.853933 
L 485.62587 -255.529937 
L 485.923162 -254.205941 
L 486.182688 -252.881945 
L 486.401667 -251.557949 
L 486.57923 -250.233952 
L 486.716548 -248.909956 
L 486.816834 -247.58596 
L 486.88523 -246.261964 
L 486.928562 -244.937967 
L 486.955 -243.613971 
L 486.973634 -242.289975 
L 486.993994 -240.965979 
L 487.025567 -239.641983 
L 487.077325 -238.317986 
L 487.157324 -236.99399 
L 487.272381 -235.669994 
L 487.427874 -234.345998 
L 487.627659 -233.022002 
L 487.874125 -231.698005 
L 488.168361 -230.374009 
L 488.510421 -229.050013 
L 488.899666 -227.726017 
L 489.335135 -226.40202 
L 489.815912 -225.078024 
L 490.341458 -223.754028 
L 490.911868 -222.430032 
L 491.528018 -221.106036 
L 492.19161 -219.782039 
L 492.905077 -218.458043 
L 493.671375 -217.134047 
L 494.49367 -215.810051 
L 495.374938 -214.486055 
L 496.317521 -213.162058 
L 497.322657 -211.838062 
L 498.390036 -210.514066 
L 499.517403 -209.19007 
L 500.700243 -207.866073 
L 501.931566 -206.542077 
L 503.201805 -205.218081 
L 504.498846 -203.894085 
L 505.808164 -202.570089 
L 507.113082 -201.246092 
L 508.395122 -199.922096 
L 509.634437 -198.5981 
L 510.8103 -197.274104 
L 511.901643 -195.950107 
L 512.887605 -194.626111 
L 513.748089 -193.302115 
L 514.464309 -191.978119 
L 515.019309 -190.654123 
L 515.398444 -189.330126 
L 515.589813 -188.00613 
L 515.58463 -186.682134 
L 515.377536 -185.358138 
L 514.966815 -184.034142 
L 514.354535 -182.710145 
L 513.546584 -181.386149 
L 512.5526 -180.062153 
L 511.385793 -178.738157 
L 510.062655 -177.41416 
L 508.602563 -176.090164 
L 507.027283 -174.766168 
L 505.360394 -173.442172 
L 503.626644 -172.118176 
L 501.851274 -170.794179 
L 500.059327 -169.470183 
L 498.274978 -168.146187 
L 496.520908 -166.822191 
L 494.817755 -165.498195 
L 493.183661 -164.174198 
L 491.633928 -162.850202 
L 490.180804 -161.526206 
L 488.833384 -160.20221 
L 487.597643 -158.878213 
L 486.476575 -157.554217 
L 485.47043 -156.230221 
L 484.577021 -154.906225 
L 483.792096 -153.582229 
L 483.10973 -152.258232 
L 482.522734 -150.934236 
L 482.02305 -149.61024 
L 481.602122 -148.286244 
L 481.251224 -146.962247 
L 480.961743 -145.638251 
z
" id="m1c83f903b0" style="stroke:#6f6f6f;stroke-width:1.5;"/>
    </defs>
    <g clip-path="url(#p3b060058db)">
     <use style="fill:#94c9de;stroke:#6f6f6f;stroke-width:1.5;" x="0" xlink:href="#m1c83f903b0" y="558.471366"/>
    </g>
   </g>
   <g id="matplotlib.axis_1">
    <g id="xtick_1">
     <g id="line2d_1">
      <defs>
       <path d="M 0 0 
L 0 3.5 
" id="m3d0f21944a" style="stroke:#000000;stroke-width:0.8;"/>
      </defs>
      <g>
       <use style="stroke:#000000;stroke-width:0.8;" x="122.757813" xlink:href="#m3d0f21944a" y="451.385156"/>
      </g>
     </g>
     <g id="text_1">
      <!-- awake -->
      <g transform="translate(100.940254 524.685256)rotate(-45)scale(0.26 -0.26)">
       <defs>
        <path d="M 40.4375 6.390625 
Q 35.546875 2.25 31.03125 0.53125 
Q 26.515625 -1.171875 21.34375 -1.171875 
Q 12.796875 -1.171875 8.203125 3 
Q 3.609375 7.171875 3.609375 13.671875 
Q 3.609375 17.484375 5.34375 20.625 
Q 7.078125 23.78125 9.890625 25.6875 
Q 12.703125 27.59375 16.21875 28.5625 
Q 18.796875 29.25 24.03125 29.890625 
Q 34.671875 31.15625 39.703125 32.90625 
Q 39.75 34.71875 39.75 35.203125 
Q 39.75 40.578125 37.25 42.78125 
Q 33.890625 45.75 27.25 45.75 
Q 21.046875 45.75 18.09375 43.578125 
Q 15.140625 41.40625 13.71875 35.890625 
L 5.125 37.0625 
Q 6.296875 42.578125 8.984375 45.96875 
Q 11.671875 49.359375 16.75 51.1875 
Q 21.828125 53.03125 28.515625 53.03125 
Q 35.15625 53.03125 39.296875 51.46875 
Q 43.453125 49.90625 45.40625 47.53125 
Q 47.359375 45.171875 48.140625 41.546875 
Q 48.578125 39.3125 48.578125 33.453125 
L 48.578125 21.734375 
Q 48.578125 9.46875 49.140625 6.21875 
Q 49.703125 2.984375 51.375 0 
L 42.1875 0 
Q 40.828125 2.734375 40.4375 6.390625 
z
M 39.703125 26.03125 
Q 34.90625 24.078125 25.34375 22.703125 
Q 19.921875 21.921875 17.671875 20.9375 
Q 15.4375 19.96875 14.203125 18.09375 
Q 12.984375 16.21875 12.984375 13.921875 
Q 12.984375 10.40625 15.640625 8.0625 
Q 18.3125 5.71875 23.4375 5.71875 
Q 28.515625 5.71875 32.46875 7.9375 
Q 36.421875 10.15625 38.28125 14.015625 
Q 39.703125 17 39.703125 22.796875 
z
" id="ArialMT-97"/>
        <path d="M 16.15625 0 
L 0.296875 51.859375 
L 9.375 51.859375 
L 17.625 21.921875 
L 20.703125 10.796875 
Q 20.90625 11.625 23.390625 21.484375 
L 31.640625 51.859375 
L 40.671875 51.859375 
L 48.4375 21.78125 
L 51.03125 11.859375 
L 54 21.875 
L 62.890625 51.859375 
L 71.4375 51.859375 
L 55.21875 0 
L 46.09375 0 
L 37.84375 31.0625 
L 35.84375 39.890625 
L 25.34375 0 
z
" id="ArialMT-119"/>
        <path d="M 6.640625 0 
L 6.640625 71.578125 
L 15.4375 71.578125 
L 15.4375 30.765625 
L 36.234375 51.859375 
L 47.609375 51.859375 
L 27.78125 32.625 
L 49.609375 0 
L 38.765625 0 
L 21.625 26.515625 
L 15.4375 20.5625 
L 15.4375 0 
z
" id="ArialMT-107"/>
        <path d="M 42.09375 16.703125 
L 51.171875 15.578125 
Q 49.03125 7.625 43.21875 3.21875 
Q 37.40625 -1.171875 28.375 -1.171875 
Q 17 -1.171875 10.328125 5.828125 
Q 3.65625 12.84375 3.65625 25.484375 
Q 3.65625 38.578125 10.390625 45.796875 
Q 17.140625 53.03125 27.875 53.03125 
Q 38.28125 53.03125 44.875 45.953125 
Q 51.46875 38.875 51.46875 26.03125 
Q 51.46875 25.25 51.421875 23.6875 
L 12.75 23.6875 
Q 13.234375 15.140625 17.578125 10.59375 
Q 21.921875 6.0625 28.421875 6.0625 
Q 33.25 6.0625 36.671875 8.59375 
Q 40.09375 11.140625 42.09375 16.703125 
z
M 13.234375 30.90625 
L 42.1875 30.90625 
Q 41.609375 37.453125 38.875 40.71875 
Q 34.671875 45.796875 27.984375 45.796875 
Q 21.921875 45.796875 17.796875 41.75 
Q 13.671875 37.703125 13.234375 30.90625 
z
" id="ArialMT-101"/>
       </defs>
       <use xlink:href="#ArialMT-97"/>
       <use x="55.615234" xlink:href="#ArialMT-119"/>
       <use x="127.832031" xlink:href="#ArialMT-97"/>
       <use x="183.447266" xlink:href="#ArialMT-107"/>
       <use x="233.447266" xlink:href="#ArialMT-101"/>
      </g>
     </g>
    </g>
    <g id="xtick_2">
     <g id="line2d_2">
      <g>
       <use style="stroke:#000000;stroke-width:0.8;" x="212.037813" xlink:href="#m3d0f21944a" y="451.385156"/>
      </g>
     </g>
     <g id="text_2">
      <!-- stage 1 -->
      <g transform="translate(186.559098 531.901281)rotate(-45)scale(0.26 -0.26)">
       <defs>
        <path d="M 3.078125 15.484375 
L 11.765625 16.84375 
Q 12.5 11.625 15.84375 8.84375 
Q 19.1875 6.0625 25.203125 6.0625 
Q 31.25 6.0625 34.171875 8.515625 
Q 37.109375 10.984375 37.109375 14.3125 
Q 37.109375 17.28125 34.515625 19 
Q 32.71875 20.171875 25.53125 21.96875 
Q 15.875 24.421875 12.140625 26.203125 
Q 8.40625 27.984375 6.46875 31.125 
Q 4.546875 34.28125 4.546875 38.09375 
Q 4.546875 41.546875 6.125 44.5 
Q 7.71875 47.46875 10.453125 49.421875 
Q 12.5 50.921875 16.03125 51.96875 
Q 19.578125 53.03125 23.640625 53.03125 
Q 29.734375 53.03125 34.34375 51.265625 
Q 38.96875 49.515625 41.15625 46.5 
Q 43.359375 43.5 44.1875 38.484375 
L 35.59375 37.3125 
Q 35.015625 41.3125 32.203125 43.546875 
Q 29.390625 45.796875 24.265625 45.796875 
Q 18.21875 45.796875 15.625 43.796875 
Q 13.03125 41.796875 13.03125 39.109375 
Q 13.03125 37.40625 14.109375 36.03125 
Q 15.1875 34.625 17.484375 33.6875 
Q 18.796875 33.203125 25.25 31.453125 
Q 34.578125 28.953125 38.25 27.359375 
Q 41.9375 25.78125 44.03125 22.75 
Q 46.140625 19.734375 46.140625 15.234375 
Q 46.140625 10.84375 43.578125 6.953125 
Q 41.015625 3.078125 36.171875 0.953125 
Q 31.34375 -1.171875 25.25 -1.171875 
Q 15.140625 -1.171875 9.84375 3.03125 
Q 4.546875 7.234375 3.078125 15.484375 
z
" id="ArialMT-115"/>
        <path d="M 25.78125 7.859375 
L 27.046875 0.09375 
Q 23.34375 -0.6875 20.40625 -0.6875 
Q 15.625 -0.6875 12.984375 0.828125 
Q 10.359375 2.34375 9.28125 4.8125 
Q 8.203125 7.28125 8.203125 15.1875 
L 8.203125 45.015625 
L 1.765625 45.015625 
L 1.765625 51.859375 
L 8.203125 51.859375 
L 8.203125 64.703125 
L 16.9375 69.96875 
L 16.9375 51.859375 
L 25.78125 51.859375 
L 25.78125 45.015625 
L 16.9375 45.015625 
L 16.9375 14.703125 
Q 16.9375 10.9375 17.40625 9.859375 
Q 17.875 8.796875 18.921875 8.15625 
Q 19.96875 7.515625 21.921875 7.515625 
Q 23.390625 7.515625 25.78125 7.859375 
z
" id="ArialMT-116"/>
        <path d="M 4.984375 -4.296875 
L 13.53125 -5.5625 
Q 14.0625 -9.515625 16.5 -11.328125 
Q 19.78125 -13.765625 25.4375 -13.765625 
Q 31.546875 -13.765625 34.859375 -11.328125 
Q 38.1875 -8.890625 39.359375 -4.5 
Q 40.046875 -1.8125 39.984375 6.78125 
Q 34.234375 0 25.640625 0 
Q 14.9375 0 9.078125 7.71875 
Q 3.21875 15.4375 3.21875 26.21875 
Q 3.21875 33.640625 5.90625 39.90625 
Q 8.59375 46.1875 13.6875 49.609375 
Q 18.796875 53.03125 25.6875 53.03125 
Q 34.859375 53.03125 40.828125 45.609375 
L 40.828125 51.859375 
L 48.921875 51.859375 
L 48.921875 7.03125 
Q 48.921875 -5.078125 46.453125 -10.125 
Q 44 -15.1875 38.640625 -18.109375 
Q 33.296875 -21.046875 25.484375 -21.046875 
Q 16.21875 -21.046875 10.5 -16.875 
Q 4.78125 -12.703125 4.984375 -4.296875 
z
M 12.25 26.859375 
Q 12.25 16.65625 16.296875 11.96875 
Q 20.359375 7.28125 26.46875 7.28125 
Q 32.515625 7.28125 36.609375 11.9375 
Q 40.71875 16.609375 40.71875 26.5625 
Q 40.71875 36.078125 36.5 40.90625 
Q 32.28125 45.75 26.3125 45.75 
Q 20.453125 45.75 16.34375 40.984375 
Q 12.25 36.234375 12.25 26.859375 
z
" id="ArialMT-103"/>
        <path id="ArialMT-32"/>
        <path d="M 37.25 0 
L 28.46875 0 
L 28.46875 56 
Q 25.296875 52.984375 20.140625 49.953125 
Q 14.984375 46.921875 10.890625 45.40625 
L 10.890625 53.90625 
Q 18.265625 57.375 23.78125 62.296875 
Q 29.296875 67.234375 31.59375 71.875 
L 37.25 71.875 
z
" id="ArialMT-49"/>
       </defs>
       <use xlink:href="#ArialMT-115"/>
       <use x="50" xlink:href="#ArialMT-116"/>
       <use x="77.783203" xlink:href="#ArialMT-97"/>
       <use x="133.398438" xlink:href="#ArialMT-103"/>
       <use x="189.013672" xlink:href="#ArialMT-101"/>
       <use x="244.628906" xlink:href="#ArialMT-32"/>
       <use x="272.412109" xlink:href="#ArialMT-49"/>
      </g>
     </g>
    </g>
    <g id="xtick_3">
     <g id="line2d_3">
      <g>
       <use style="stroke:#000000;stroke-width:0.8;" x="301.317813" xlink:href="#m3d0f21944a" y="451.385156"/>
      </g>
     </g>
     <g id="text_3">
      <!-- stage 2 -->
      <g transform="translate(275.839098 531.901281)rotate(-45)scale(0.26 -0.26)">
       <defs>
        <path d="M 50.34375 8.453125 
L 50.34375 0 
L 3.03125 0 
Q 2.9375 3.171875 4.046875 6.109375 
Q 5.859375 10.9375 9.828125 15.625 
Q 13.8125 20.3125 21.34375 26.46875 
Q 33.015625 36.03125 37.109375 41.625 
Q 41.21875 47.21875 41.21875 52.203125 
Q 41.21875 57.421875 37.46875 61 
Q 33.734375 64.59375 27.734375 64.59375 
Q 21.390625 64.59375 17.578125 60.78125 
Q 13.765625 56.984375 13.71875 50.25 
L 4.6875 51.171875 
Q 5.609375 61.28125 11.65625 66.578125 
Q 17.71875 71.875 27.9375 71.875 
Q 38.234375 71.875 44.234375 66.15625 
Q 50.25 60.453125 50.25 52 
Q 50.25 47.703125 48.484375 43.546875 
Q 46.734375 39.40625 42.65625 34.8125 
Q 38.578125 30.21875 29.109375 22.21875 
Q 21.1875 15.578125 18.9375 13.203125 
Q 16.703125 10.84375 15.234375 8.453125 
z
" id="ArialMT-50"/>
       </defs>
       <use xlink:href="#ArialMT-115"/>
       <use x="50" xlink:href="#ArialMT-116"/>
       <use x="77.783203" xlink:href="#ArialMT-97"/>
       <use x="133.398438" xlink:href="#ArialMT-103"/>
       <use x="189.013672" xlink:href="#ArialMT-101"/>
       <use x="244.628906" xlink:href="#ArialMT-32"/>
       <use x="272.412109" xlink:href="#ArialMT-50"/>
      </g>
     </g>
    </g>
    <g id="xtick_4">
     <g id="line2d_4">
      <g>
       <use style="stroke:#000000;stroke-width:0.8;" x="390.597813" xlink:href="#m3d0f21944a" y="451.385156"/>
      </g>
     </g>
     <g id="text_4">
      <!-- stage 3/4 -->
      <g transform="translate(357.53825 547.401945)rotate(-45)scale(0.26 -0.26)">
       <defs>
        <path d="M 4.203125 18.890625 
L 12.984375 20.0625 
Q 14.5 12.59375 18.140625 9.296875 
Q 21.78125 6 27 6 
Q 33.203125 6 37.46875 10.296875 
Q 41.75 14.59375 41.75 20.953125 
Q 41.75 27 37.796875 30.921875 
Q 33.84375 34.859375 27.734375 34.859375 
Q 25.25 34.859375 21.53125 33.890625 
L 22.515625 41.609375 
Q 23.390625 41.5 23.921875 41.5 
Q 29.546875 41.5 34.03125 44.421875 
Q 38.53125 47.359375 38.53125 53.46875 
Q 38.53125 58.296875 35.25 61.46875 
Q 31.984375 64.65625 26.8125 64.65625 
Q 21.6875 64.65625 18.265625 61.421875 
Q 14.84375 58.203125 13.875 51.765625 
L 5.078125 53.328125 
Q 6.6875 62.15625 12.390625 67.015625 
Q 18.109375 71.875 26.609375 71.875 
Q 32.46875 71.875 37.390625 69.359375 
Q 42.328125 66.84375 44.9375 62.5 
Q 47.5625 58.15625 47.5625 53.265625 
Q 47.5625 48.640625 45.0625 44.828125 
Q 42.578125 41.015625 37.703125 38.765625 
Q 44.046875 37.3125 47.5625 32.6875 
Q 51.078125 28.078125 51.078125 21.140625 
Q 51.078125 11.765625 44.234375 5.25 
Q 37.40625 -1.265625 26.953125 -1.265625 
Q 17.53125 -1.265625 11.296875 4.34375 
Q 5.078125 9.96875 4.203125 18.890625 
z
" id="ArialMT-51"/>
        <path d="M 0 -1.21875 
L 20.75 72.796875 
L 27.78125 72.796875 
L 7.078125 -1.21875 
z
" id="ArialMT-47"/>
        <path d="M 32.328125 0 
L 32.328125 17.140625 
L 1.265625 17.140625 
L 1.265625 25.203125 
L 33.9375 71.578125 
L 41.109375 71.578125 
L 41.109375 25.203125 
L 50.78125 25.203125 
L 50.78125 17.140625 
L 41.109375 17.140625 
L 41.109375 0 
z
M 32.328125 25.203125 
L 32.328125 57.46875 
L 9.90625 25.203125 
z
" id="ArialMT-52"/>
       </defs>
       <use xlink:href="#ArialMT-115"/>
       <use x="50" xlink:href="#ArialMT-116"/>
       <use x="77.783203" xlink:href="#ArialMT-97"/>
       <use x="133.398438" xlink:href="#ArialMT-103"/>
       <use x="189.013672" xlink:href="#ArialMT-101"/>
       <use x="244.628906" xlink:href="#ArialMT-32"/>
       <use x="272.412109" xlink:href="#ArialMT-51"/>
       <use x="328.027344" xlink:href="#ArialMT-47"/>
       <use x="355.810547" xlink:href="#ArialMT-52"/>
      </g>
     </g>
    </g>
    <g id="xtick_5">
     <g id="line2d_5">
      <g>
       <use style="stroke:#000000;stroke-width:0.8;" x="479.877813" xlink:href="#m3d0f21944a" y="451.385156"/>
      </g>
     </g>
     <g id="text_5">
      <!-- REM -->
      <g transform="translate(464.203354 512.399055)rotate(-45)scale(0.26 -0.26)">
       <defs>
        <path d="M 7.859375 0 
L 7.859375 71.578125 
L 39.59375 71.578125 
Q 49.171875 71.578125 54.140625 69.640625 
Q 59.125 67.71875 62.109375 62.828125 
Q 65.09375 57.953125 65.09375 52.046875 
Q 65.09375 44.4375 60.15625 39.203125 
Q 55.21875 33.984375 44.921875 32.5625 
Q 48.6875 30.765625 50.640625 29 
Q 54.78125 25.203125 58.5 19.484375 
L 70.953125 0 
L 59.03125 0 
L 49.5625 14.890625 
Q 45.40625 21.34375 42.71875 24.75 
Q 40.046875 28.171875 37.921875 29.53125 
Q 35.796875 30.90625 33.59375 31.453125 
Q 31.984375 31.78125 28.328125 31.78125 
L 17.328125 31.78125 
L 17.328125 0 
z
M 17.328125 39.984375 
L 37.703125 39.984375 
Q 44.1875 39.984375 47.84375 41.328125 
Q 51.515625 42.671875 53.421875 45.625 
Q 55.328125 48.578125 55.328125 52.046875 
Q 55.328125 57.125 51.640625 60.390625 
Q 47.953125 63.671875 39.984375 63.671875 
L 17.328125 63.671875 
z
" id="ArialMT-82"/>
        <path d="M 7.90625 0 
L 7.90625 71.578125 
L 59.671875 71.578125 
L 59.671875 63.140625 
L 17.390625 63.140625 
L 17.390625 41.21875 
L 56.984375 41.21875 
L 56.984375 32.8125 
L 17.390625 32.8125 
L 17.390625 8.453125 
L 61.328125 8.453125 
L 61.328125 0 
z
" id="ArialMT-69"/>
        <path d="M 7.421875 0 
L 7.421875 71.578125 
L 21.6875 71.578125 
L 38.625 20.90625 
Q 40.96875 13.8125 42.046875 10.296875 
Q 43.265625 14.203125 45.84375 21.78125 
L 62.984375 71.578125 
L 75.734375 71.578125 
L 75.734375 0 
L 66.609375 0 
L 66.609375 59.90625 
L 45.796875 0 
L 37.25 0 
L 16.546875 60.9375 
L 16.546875 0 
z
" id="ArialMT-77"/>
       </defs>
       <use xlink:href="#ArialMT-82"/>
       <use x="72.216797" xlink:href="#ArialMT-69"/>
       <use x="138.916016" xlink:href="#ArialMT-77"/>
      </g>
     </g>
    </g>
   </g>
   <g id="matplotlib.axis_2">
    <g id="ytick_1">
     <g id="line2d_6">
      <defs>
       <path d="M 0 0 
L -3.5 0 
" id="m2416788bd4" style="stroke:#000000;stroke-width:0.8;"/>
      </defs>
      <g>
       <use style="stroke:#000000;stroke-width:0.8;" x="78.117813" xlink:href="#m2416788bd4" y="411.850611"/>
      </g>
     </g>
     <g id="text_6">
      <!-- 0.0 -->
      <g transform="translate(34.977813 421.155767)scale(0.26 -0.26)">
       <defs>
        <path d="M 4.15625 35.296875 
Q 4.15625 48 6.765625 55.734375 
Q 9.375 63.484375 14.515625 67.671875 
Q 19.671875 71.875 27.484375 71.875 
Q 33.25 71.875 37.59375 69.546875 
Q 41.9375 67.234375 44.765625 62.859375 
Q 47.609375 58.5 49.21875 52.21875 
Q 50.828125 45.953125 50.828125 35.296875 
Q 50.828125 22.703125 48.234375 14.96875 
Q 45.65625 7.234375 40.5 3 
Q 35.359375 -1.21875 27.484375 -1.21875 
Q 17.140625 -1.21875 11.234375 6.203125 
Q 4.15625 15.140625 4.15625 35.296875 
z
M 13.1875 35.296875 
Q 13.1875 17.671875 17.3125 11.828125 
Q 21.4375 6 27.484375 6 
Q 33.546875 6 37.671875 11.859375 
Q 41.796875 17.71875 41.796875 35.296875 
Q 41.796875 52.984375 37.671875 58.78125 
Q 33.546875 64.59375 27.390625 64.59375 
Q 21.34375 64.59375 17.71875 59.46875 
Q 13.1875 52.9375 13.1875 35.296875 
z
" id="ArialMT-48"/>
        <path d="M 9.078125 0 
L 9.078125 10.015625 
L 19.09375 10.015625 
L 19.09375 0 
z
" id="ArialMT-46"/>
       </defs>
       <use xlink:href="#ArialMT-48"/>
       <use x="55.615234" xlink:href="#ArialMT-46"/>
       <use x="83.398438" xlink:href="#ArialMT-48"/>
      </g>
     </g>
    </g>
    <g id="ytick_2">
     <g id="line2d_7">
      <g>
       <use style="stroke:#000000;stroke-width:0.8;" x="78.117813" xlink:href="#m2416788bd4" y="332.78152"/>
      </g>
     </g>
     <g id="text_7">
      <!-- 0.2 -->
      <g transform="translate(34.977813 342.086676)scale(0.26 -0.26)">
       <use xlink:href="#ArialMT-48"/>
       <use x="55.615234" xlink:href="#ArialMT-46"/>
       <use x="83.398438" xlink:href="#ArialMT-50"/>
      </g>
     </g>
    </g>
    <g id="ytick_3">
     <g id="line2d_8">
      <g>
       <use style="stroke:#000000;stroke-width:0.8;" x="78.117813" xlink:href="#m2416788bd4" y="253.712429"/>
      </g>
     </g>
     <g id="text_8">
      <!-- 0.4 -->
      <g transform="translate(34.977813 263.017585)scale(0.26 -0.26)">
       <use xlink:href="#ArialMT-48"/>
       <use x="55.615234" xlink:href="#ArialMT-46"/>
       <use x="83.398438" xlink:href="#ArialMT-52"/>
      </g>
     </g>
    </g>
    <g id="ytick_4">
     <g id="line2d_9">
      <g>
       <use style="stroke:#000000;stroke-width:0.8;" x="78.117813" xlink:href="#m2416788bd4" y="174.643338"/>
      </g>
     </g>
     <g id="text_9">
      <!-- 0.6 -->
      <g transform="translate(34.977813 183.948494)scale(0.26 -0.26)">
       <defs>
        <path d="M 49.75 54.046875 
L 41.015625 53.375 
Q 39.84375 58.546875 37.703125 60.890625 
Q 34.125 64.65625 28.90625 64.65625 
Q 24.703125 64.65625 21.53125 62.3125 
Q 17.390625 59.28125 14.984375 53.46875 
Q 12.59375 47.65625 12.5 36.921875 
Q 15.671875 41.75 20.265625 44.09375 
Q 24.859375 46.4375 29.890625 46.4375 
Q 38.671875 46.4375 44.84375 39.96875 
Q 51.03125 33.5 51.03125 23.25 
Q 51.03125 16.5 48.125 10.71875 
Q 45.21875 4.9375 40.140625 1.859375 
Q 35.0625 -1.21875 28.609375 -1.21875 
Q 17.625 -1.21875 10.6875 6.859375 
Q 3.765625 14.9375 3.765625 33.5 
Q 3.765625 54.25 11.421875 63.671875 
Q 18.109375 71.875 29.4375 71.875 
Q 37.890625 71.875 43.28125 67.140625 
Q 48.6875 62.40625 49.75 54.046875 
z
M 13.875 23.1875 
Q 13.875 18.65625 15.796875 14.5 
Q 17.71875 10.359375 21.1875 8.171875 
Q 24.65625 6 28.46875 6 
Q 34.03125 6 38.03125 10.484375 
Q 42.046875 14.984375 42.046875 22.703125 
Q 42.046875 30.125 38.078125 34.390625 
Q 34.125 38.671875 28.125 38.671875 
Q 22.171875 38.671875 18.015625 34.390625 
Q 13.875 30.125 13.875 23.1875 
z
" id="ArialMT-54"/>
       </defs>
       <use xlink:href="#ArialMT-48"/>
       <use x="55.615234" xlink:href="#ArialMT-46"/>
       <use x="83.398438" xlink:href="#ArialMT-54"/>
      </g>
     </g>
    </g>
    <g id="ytick_5">
     <g id="line2d_10">
      <g>
       <use style="stroke:#000000;stroke-width:0.8;" x="78.117813" xlink:href="#m2416788bd4" y="95.574247"/>
      </g>
     </g>
     <g id="text_10">
      <!-- 0.8 -->
      <g transform="translate(34.977813 104.879403)scale(0.26 -0.26)">
       <defs>
        <path d="M 17.671875 38.8125 
Q 12.203125 40.828125 9.5625 44.53125 
Q 6.9375 48.25 6.9375 53.421875 
Q 6.9375 61.234375 12.546875 66.546875 
Q 18.171875 71.875 27.484375 71.875 
Q 36.859375 71.875 42.578125 66.421875 
Q 48.296875 60.984375 48.296875 53.171875 
Q 48.296875 48.1875 45.671875 44.5 
Q 43.0625 40.828125 37.75 38.8125 
Q 44.34375 36.671875 47.78125 31.875 
Q 51.21875 27.09375 51.21875 20.453125 
Q 51.21875 11.28125 44.71875 5.03125 
Q 38.234375 -1.21875 27.640625 -1.21875 
Q 17.046875 -1.21875 10.546875 5.046875 
Q 4.046875 11.328125 4.046875 20.703125 
Q 4.046875 27.6875 7.59375 32.390625 
Q 11.140625 37.109375 17.671875 38.8125 
z
M 15.921875 53.71875 
Q 15.921875 48.640625 19.1875 45.40625 
Q 22.46875 42.1875 27.6875 42.1875 
Q 32.765625 42.1875 36.015625 45.375 
Q 39.265625 48.578125 39.265625 53.21875 
Q 39.265625 58.0625 35.90625 61.359375 
Q 32.5625 64.65625 27.59375 64.65625 
Q 22.5625 64.65625 19.234375 61.421875 
Q 15.921875 58.203125 15.921875 53.71875 
z
M 13.09375 20.65625 
Q 13.09375 16.890625 14.875 13.375 
Q 16.65625 9.859375 20.171875 7.921875 
Q 23.6875 6 27.734375 6 
Q 34.03125 6 38.125 10.046875 
Q 42.234375 14.109375 42.234375 20.359375 
Q 42.234375 26.703125 38.015625 30.859375 
Q 33.796875 35.015625 27.4375 35.015625 
Q 21.234375 35.015625 17.15625 30.90625 
Q 13.09375 26.8125 13.09375 20.65625 
z
" id="ArialMT-56"/>
       </defs>
       <use xlink:href="#ArialMT-48"/>
       <use x="55.615234" xlink:href="#ArialMT-46"/>
       <use x="83.398438" xlink:href="#ArialMT-56"/>
      </g>
     </g>
    </g>
    <g id="ytick_6">
     <g id="line2d_11">
      <g>
       <use style="stroke:#000000;stroke-width:0.8;" x="78.117813" xlink:href="#m2416788bd4" y="16.505156"/>
      </g>
     </g>
     <g id="text_11">
      <!-- 1.0 -->
      <g transform="translate(34.977813 25.810313)scale(0.26 -0.26)">
       <use xlink:href="#ArialMT-49"/>
       <use x="55.615234" xlink:href="#ArialMT-46"/>
       <use x="83.398438" xlink:href="#ArialMT-48"/>
      </g>
     </g>
    </g>
    <g id="text_12">
     <!-- mean of EI ratio -->
     <g transform="translate(25.810313 325.706875)rotate(-90)scale(0.26 -0.26)">
      <defs>
       <path d="M 6.59375 0 
L 6.59375 51.859375 
L 14.453125 51.859375 
L 14.453125 44.578125 
Q 16.890625 48.390625 20.9375 50.703125 
Q 25 53.03125 30.171875 53.03125 
Q 35.9375 53.03125 39.625 50.640625 
Q 43.3125 48.25 44.828125 43.953125 
Q 50.984375 53.03125 60.84375 53.03125 
Q 68.5625 53.03125 72.703125 48.75 
Q 76.859375 44.484375 76.859375 35.59375 
L 76.859375 0 
L 68.109375 0 
L 68.109375 32.671875 
Q 68.109375 37.9375 67.25 40.25 
Q 66.40625 42.578125 64.15625 43.984375 
Q 61.921875 45.40625 58.890625 45.40625 
Q 53.421875 45.40625 49.796875 41.765625 
Q 46.1875 38.140625 46.1875 30.125 
L 46.1875 0 
L 37.40625 0 
L 37.40625 33.6875 
Q 37.40625 39.546875 35.25 42.46875 
Q 33.109375 45.40625 28.21875 45.40625 
Q 24.515625 45.40625 21.359375 43.453125 
Q 18.21875 41.5 16.796875 37.734375 
Q 15.375 33.984375 15.375 26.90625 
L 15.375 0 
z
" id="ArialMT-109"/>
       <path d="M 6.59375 0 
L 6.59375 51.859375 
L 14.5 51.859375 
L 14.5 44.484375 
Q 20.21875 53.03125 31 53.03125 
Q 35.6875 53.03125 39.625 51.34375 
Q 43.5625 49.65625 45.515625 46.921875 
Q 47.46875 44.1875 48.25 40.4375 
Q 48.734375 37.984375 48.734375 31.890625 
L 48.734375 0 
L 39.9375 0 
L 39.9375 31.546875 
Q 39.9375 36.921875 38.90625 39.578125 
Q 37.890625 42.234375 35.28125 43.8125 
Q 32.671875 45.40625 29.15625 45.40625 
Q 23.53125 45.40625 19.453125 41.84375 
Q 15.375 38.28125 15.375 28.328125 
L 15.375 0 
z
" id="ArialMT-110"/>
       <path d="M 3.328125 25.921875 
Q 3.328125 40.328125 11.328125 47.265625 
Q 18.015625 53.03125 27.640625 53.03125 
Q 38.328125 53.03125 45.109375 46.015625 
Q 51.90625 39.015625 51.90625 26.65625 
Q 51.90625 16.65625 48.90625 10.90625 
Q 45.90625 5.171875 40.15625 2 
Q 34.421875 -1.171875 27.640625 -1.171875 
Q 16.75 -1.171875 10.03125 5.8125 
Q 3.328125 12.796875 3.328125 25.921875 
z
M 12.359375 25.921875 
Q 12.359375 15.96875 16.703125 11.015625 
Q 21.046875 6.0625 27.640625 6.0625 
Q 34.1875 6.0625 38.53125 11.03125 
Q 42.875 16.015625 42.875 26.21875 
Q 42.875 35.84375 38.5 40.796875 
Q 34.125 45.75 27.640625 45.75 
Q 21.046875 45.75 16.703125 40.8125 
Q 12.359375 35.890625 12.359375 25.921875 
z
" id="ArialMT-111"/>
       <path d="M 8.6875 0 
L 8.6875 45.015625 
L 0.921875 45.015625 
L 0.921875 51.859375 
L 8.6875 51.859375 
L 8.6875 57.375 
Q 8.6875 62.59375 9.625 65.140625 
Q 10.890625 68.5625 14.078125 70.671875 
Q 17.28125 72.796875 23.046875 72.796875 
Q 26.765625 72.796875 31.25 71.921875 
L 29.9375 64.265625 
Q 27.203125 64.75 24.75 64.75 
Q 20.75 64.75 19.09375 63.03125 
Q 17.4375 61.328125 17.4375 56.640625 
L 17.4375 51.859375 
L 27.546875 51.859375 
L 27.546875 45.015625 
L 17.4375 45.015625 
L 17.4375 0 
z
" id="ArialMT-102"/>
       <path d="M 9.328125 0 
L 9.328125 71.578125 
L 18.796875 71.578125 
L 18.796875 0 
z
" id="ArialMT-73"/>
       <path d="M 6.5 0 
L 6.5 51.859375 
L 14.40625 51.859375 
L 14.40625 44 
Q 17.4375 49.515625 20 51.265625 
Q 22.5625 53.03125 25.640625 53.03125 
Q 30.078125 53.03125 34.671875 50.203125 
L 31.640625 42.046875 
Q 28.421875 43.953125 25.203125 43.953125 
Q 22.3125 43.953125 20.015625 42.21875 
Q 17.71875 40.484375 16.75 37.40625 
Q 15.28125 32.71875 15.28125 27.15625 
L 15.28125 0 
z
" id="ArialMT-114"/>
       <path d="M 6.640625 61.46875 
L 6.640625 71.578125 
L 15.4375 71.578125 
L 15.4375 61.46875 
z
M 6.640625 0 
L 6.640625 51.859375 
L 15.4375 51.859375 
L 15.4375 0 
z
" id="ArialMT-105"/>
      </defs>
      <use xlink:href="#ArialMT-109"/>
      <use x="83.300781" xlink:href="#ArialMT-101"/>
      <use x="138.916016" xlink:href="#ArialMT-97"/>
      <use x="194.53125" xlink:href="#ArialMT-110"/>
      <use x="250.146484" xlink:href="#ArialMT-32"/>
      <use x="277.929688" xlink:href="#ArialMT-111"/>
      <use x="333.544922" xlink:href="#ArialMT-102"/>
      <use x="361.328125" xlink:href="#ArialMT-32"/>
      <use x="389.111328" xlink:href="#ArialMT-69"/>
      <use x="455.810547" xlink:href="#ArialMT-73"/>
      <use x="483.59375" xlink:href="#ArialMT-32"/>
      <use x="511.376953" xlink:href="#ArialMT-114"/>
      <use x="544.677734" xlink:href="#ArialMT-97"/>
      <use x="600.292969" xlink:href="#ArialMT-116"/>
      <use x="628.076172" xlink:href="#ArialMT-105"/>
      <use x="650.292969" xlink:href="#ArialMT-111"/>
     </g>
    </g>
   </g>
   <g id="line2d_12">
    <path clip-path="url(#p3b060058db)" d="M 122.757813 397.674056 
L 122.757813 217.370813 
" style="fill:none;stroke:#6f6f6f;stroke-linecap:square;stroke-width:1.5;"/>
   </g>
   <g id="line2d_13">
    <path clip-path="url(#p3b060058db)" d="M 122.757813 375.476732 
L 122.757813 311.296793 
" style="fill:none;stroke:#6f6f6f;stroke-linecap:square;stroke-width:4.5;"/>
   </g>
   <g id="line2d_14">
    <path clip-path="url(#p3b060058db)" d="M 212.037813 405.870346 
L 212.037813 261.637008 
" style="fill:none;stroke:#6f6f6f;stroke-linecap:square;stroke-width:1.5;"/>
   </g>
   <g id="line2d_15">
    <path clip-path="url(#p3b060058db)" d="M 212.037813 382.406733 
L 212.037813 331.670826 
" style="fill:none;stroke:#6f6f6f;stroke-linecap:square;stroke-width:4.5;"/>
   </g>
   <g id="line2d_16">
    <path clip-path="url(#p3b060058db)" d="M 301.317813 386.162034 
L 301.317813 268.466246 
" style="fill:none;stroke:#6f6f6f;stroke-linecap:square;stroke-width:1.5;"/>
   </g>
   <g id="line2d_17">
    <path clip-path="url(#p3b060058db)" d="M 301.317813 359.546616 
L 301.317813 311.610927 
" style="fill:none;stroke:#6f6f6f;stroke-linecap:square;stroke-width:4.5;"/>
   </g>
   <g id="line2d_18">
    <path clip-path="url(#p3b060058db)" d="M 390.597813 364.02171 
L 390.597813 205.372691 
" style="fill:none;stroke:#6f6f6f;stroke-linecap:square;stroke-width:1.5;"/>
   </g>
   <g id="line2d_19">
    <path clip-path="url(#p3b060058db)" d="M 390.597813 325.929998 
L 390.597813 249.257041 
" style="fill:none;stroke:#6f6f6f;stroke-linecap:square;stroke-width:4.5;"/>
   </g>
   <g id="line2d_20">
    <path clip-path="url(#p3b060058db)" d="M 479.877813 387.223493 
L 479.877813 335.825098 
" style="fill:none;stroke:#6f6f6f;stroke-linecap:square;stroke-width:1.5;"/>
   </g>
   <g id="line2d_21">
    <path clip-path="url(#p3b060058db)" d="M 479.877813 376.090108 
L 479.877813 353.28262 
" style="fill:none;stroke:#6f6f6f;stroke-linecap:square;stroke-width:4.5;"/>
   </g>
   <g id="patch_3">
    <path d="M 78.117813 451.385156 
L 78.117813 16.505156 
" style="fill:none;stroke:#000000;stroke-linecap:square;stroke-linejoin:miter;stroke-width:0.8;"/>
   </g>
   <g id="patch_4">
    <path d="M 524.517812 451.385156 
L 524.517812 16.505156 
" style="fill:none;stroke:#000000;stroke-linecap:square;stroke-linejoin:miter;stroke-width:0.8;"/>
   </g>
   <g id="patch_5">
    <path d="M 78.117813 451.385156 
L 524.517812 451.385156 
" style="fill:none;stroke:#000000;stroke-linecap:square;stroke-linejoin:miter;stroke-width:0.8;"/>
   </g>
   <g id="patch_6">
    <path d="M 78.117813 16.505156 
L 524.517812 16.505156 
" style="fill:none;stroke:#000000;stroke-linecap:square;stroke-linejoin:miter;stroke-width:0.8;"/>
   </g>
   <g id="PathCollection_1">
    <defs>
     <path d="M 0 1.5 
C 0.397805 1.5 0.77937 1.341951 1.06066 1.06066 
C 1.341951 0.77937 1.5 0.397805 1.5 0 
C 1.5 -0.397805 1.341951 -0.77937 1.06066 -1.06066 
C 0.77937 -1.341951 0.397805 -1.5 0 -1.5 
C -0.397805 -1.5 -0.77937 -1.341951 -1.06066 -1.06066 
C -1.341951 -0.77937 -1.5 -0.397805 -1.5 0 
C -1.5 0.397805 -1.341951 0.77937 -1.06066 1.06066 
C -0.77937 1.341951 -0.397805 1.5 0 1.5 
z
" id="mf0217b3b77" style="stroke:#6f6f6f;"/>
    </defs>
    <g clip-path="url(#p3b060058db)">
     <use style="fill:#ffffff;stroke:#6f6f6f;" x="122.757813" xlink:href="#mf0217b3b77" y="350.360243"/>
    </g>
   </g>
   <g id="PathCollection_2">
    <g clip-path="url(#p3b060058db)">
     <use style="fill:#ffffff;stroke:#6f6f6f;" x="212.037813" xlink:href="#mf0217b3b77" y="361.399932"/>
    </g>
   </g>
   <g id="PathCollection_3">
    <g clip-path="url(#p3b060058db)">
     <use style="fill:#ffffff;stroke:#6f6f6f;" x="301.317813" xlink:href="#mf0217b3b77" y="351.533554"/>
    </g>
   </g>
   <g id="PathCollection_4">
    <g clip-path="url(#p3b060058db)">
     <use style="fill:#ffffff;stroke:#6f6f6f;" x="390.597813" xlink:href="#mf0217b3b77" y="291.159963"/>
    </g>
   </g>
   <g id="PathCollection_5">
    <g clip-path="url(#p3b060058db)">
     <use style="fill:#ffffff;stroke:#6f6f6f;" x="479.877813" xlink:href="#mf0217b3b77" y="367.019477"/>
    </g>
   </g>
   <g id="PathCollection_6">
    <defs>
     <path d="M 0 2.5 
C 0.663008 2.5 1.29895 2.236584 1.767767 1.767767 
C 2.236584 1.29895 2.5 0.663008 2.5 -0 
C 2.5 -0.663008 2.236584 -1.29895 1.767767 -1.767767 
C 1.29895 -2.236584 0.663008 -2.5 0 -2.5 
C -0.663008 -2.5 -1.29895 -2.236584 -1.767767 -1.767767 
C -2.236584 -1.29895 -2.5 -0.663008 -2.5 0 
C -2.5 0.663008 -2.236584 1.29895 -1.767767 1.767767 
C -1.29895 2.236584 -0.663008 2.5 0 2.5 
z
" id="C0_0_7233d7f28e"/>
    </defs>
    <g clip-path="url(#p3b060058db)">
     <use style="fill:#0000ff;" x="128.643535" xlink:href="#C0_0_7233d7f28e" y="382.324519"/>
    </g>
    <g clip-path="url(#p3b060058db)">
     <use style="fill:#0000ff;" x="123.005335" xlink:href="#C0_0_7233d7f28e" y="282.362703"/>
    </g>
    <g clip-path="url(#p3b060058db)">
     <use style="fill:#0000ff;" x="129.658205" xlink:href="#C0_0_7233d7f28e" y="389.113596"/>
    </g>
    <g clip-path="url(#p3b060058db)">
     <use style="fill:#0000ff;" x="124.32844" xlink:href="#C0_0_7233d7f28e" y="350.360243"/>
    </g>
    <g clip-path="url(#p3b060058db)">
     <use style="fill:#0000ff;" x="117.388292" xlink:href="#C0_0_7233d7f28e" y="285.181258"/>
    </g>
    <g clip-path="url(#p3b060058db)">
     <use style="fill:#0000ff;" x="130.254089" xlink:href="#C0_0_7233d7f28e" y="304.704281"/>
    </g>
    <g clip-path="url(#p3b060058db)">
     <use style="fill:#0000ff;" x="126.982763" xlink:href="#C0_0_7233d7f28e" y="254.335309"/>
    </g>
    <g clip-path="url(#p3b060058db)">
     <use style="fill:#0000ff;" x="125.538832" xlink:href="#C0_0_7233d7f28e" y="332.536121"/>
    </g>
    <g clip-path="url(#p3b060058db)">
     <use style="fill:#0000ff;" x="129.271923" xlink:href="#C0_0_7233d7f28e" y="378.382057"/>
    </g>
    <g clip-path="url(#p3b060058db)">
     <use style="fill:#0000ff;" x="118.787386" xlink:href="#C0_0_7233d7f28e" y="341.524316"/>
    </g>
    <g clip-path="url(#p3b060058db)">
     <use style="fill:#0000ff;" x="129.713177" xlink:href="#C0_0_7233d7f28e" y="366.229581"/>
    </g>
    <g clip-path="url(#p3b060058db)">
     <use style="fill:#0000ff;" x="119.348434" xlink:href="#C0_0_7233d7f28e" y="372.571407"/>
    </g>
    <g clip-path="url(#p3b060058db)">
     <use style="fill:#0000ff;" x="119.445392" xlink:href="#C0_0_7233d7f28e" y="217.370813"/>
    </g>
    <g clip-path="url(#p3b060058db)">
     <use style="fill:#0000ff;" x="116.207501" xlink:href="#C0_0_7233d7f28e" y="328.290773"/>
    </g>
    <g clip-path="url(#p3b060058db)">
     <use style="fill:#0000ff;" x="117.715523" xlink:href="#C0_0_7233d7f28e" y="395.702391"/>
    </g>
    <g clip-path="url(#p3b060058db)">
     <use style="fill:#0000ff;" x="129.345733" xlink:href="#C0_0_7233d7f28e" y="370.130909"/>
    </g>
    <g clip-path="url(#p3b060058db)">
     <use style="fill:#0000ff;" x="131.105478" xlink:href="#C0_0_7233d7f28e" y="364.884325"/>
    </g>
    <g clip-path="url(#p3b060058db)">
     <use style="fill:#0000ff;" x="129.955747" xlink:href="#C0_0_7233d7f28e" y="317.889306"/>
    </g>
    <g clip-path="url(#p3b060058db)">
     <use style="fill:#0000ff;" x="114.808733" xlink:href="#C0_0_7233d7f28e" y="397.674056"/>
    </g>
   </g>
   <g id="PathCollection_7">
    <defs>
     <path d="M 0 2.5 
C 0.663008 2.5 1.29895 2.236584 1.767767 1.767767 
C 2.236584 1.29895 2.5 0.663008 2.5 -0 
C 2.5 -0.663008 2.236584 -1.29895 1.767767 -1.767767 
C 1.29895 -2.236584 0.663008 -2.5 0 -2.5 
C -0.663008 -2.5 -1.29895 -2.236584 -1.767767 -1.767767 
C -2.236584 -1.29895 -2.5 -0.663008 -2.5 0 
C -2.5 0.663008 -2.236584 1.29895 -1.767767 1.767767 
C -1.29895 2.236584 -0.663008 2.5 0 2.5 
z
" id="C1_0_18ad974b01"/>
    </defs>
    <g clip-path="url(#p3b060058db)">
     <use style="fill:#0000ff;" x="205.263822" xlink:href="#C1_0_18ad974b01" y="368.631214"/>
    </g>
    <g clip-path="url(#p3b060058db)">
     <use style="fill:#0000ff;" x="212.572251" xlink:href="#C1_0_18ad974b01" y="334.371752"/>
    </g>
    <g clip-path="url(#p3b060058db)">
     <use style="fill:#0000ff;" x="209.298909" xlink:href="#C1_0_18ad974b01" y="380.98002"/>
    </g>
    <g clip-path="url(#p3b060058db)">
     <use style="fill:#0000ff;" x="204.006384" xlink:href="#C1_0_18ad974b01" y="405.870346"/>
    </g>
    <g clip-path="url(#p3b060058db)">
     <use style="fill:#0000ff;" x="203.356416" xlink:href="#C1_0_18ad974b01" y="309.516468"/>
    </g>
    <g clip-path="url(#p3b060058db)">
     <use style="fill:#0000ff;" x="209.429228" xlink:href="#C1_0_18ad974b01" y="360.532295"/>
    </g>
    <g clip-path="url(#p3b060058db)">
     <use style="fill:#0000ff;" x="218.667066" xlink:href="#C1_0_18ad974b01" y="261.637008"/>
    </g>
    <g clip-path="url(#p3b060058db)">
     <use style="fill:#0000ff;" x="212.104165" xlink:href="#C1_0_18ad974b01" y="369.394454"/>
    </g>
    <g clip-path="url(#p3b060058db)">
     <use style="fill:#0000ff;" x="207.102754" xlink:href="#C1_0_18ad974b01" y="383.833445"/>
    </g>
    <g clip-path="url(#p3b060058db)">
     <use style="fill:#0000ff;" x="217.495443" xlink:href="#C1_0_18ad974b01" y="361.399932"/>
    </g>
    <g clip-path="url(#p3b060058db)">
     <use style="fill:#0000ff;" x="210.117441" xlink:href="#C1_0_18ad974b01" y="384.698606"/>
    </g>
    <g clip-path="url(#p3b060058db)">
     <use style="fill:#0000ff;" x="212.756577" xlink:href="#C1_0_18ad974b01" y="375.9806"/>
    </g>
    <g clip-path="url(#p3b060058db)">
     <use style="fill:#0000ff;" x="210.158725" xlink:href="#C1_0_18ad974b01" y="251.031986"/>
    </g>
    <g clip-path="url(#p3b060058db)">
     <use style="fill:#0000ff;" x="216.309342" xlink:href="#C1_0_18ad974b01" y="328.9699"/>
    </g>
    <g clip-path="url(#p3b060058db)">
     <use style="fill:#0000ff;" x="215.425452" xlink:href="#C1_0_18ad974b01" y="397.080193"/>
    </g>
    <g clip-path="url(#p3b060058db)">
     <use style="fill:#0000ff;" x="206.522721" xlink:href="#C1_0_18ad974b01" y="327.099974"/>
    </g>
    <g clip-path="url(#p3b060058db)">
     <use style="fill:#0000ff;" x="209.131696" xlink:href="#C1_0_18ad974b01" y="341.737033"/>
    </g>
    <g clip-path="url(#p3b060058db)">
     <use style="fill:#0000ff;" x="211.748031" xlink:href="#C1_0_18ad974b01" y="360.651079"/>
    </g>
    <g clip-path="url(#p3b060058db)">
     <use style="fill:#0000ff;" x="219.01273" xlink:href="#C1_0_18ad974b01" y="392.794892"/>
    </g>
   </g>
   <g id="PathCollection_8">
    <defs>
     <path d="M 0 2.5 
C 0.663008 2.5 1.29895 2.236584 1.767767 1.767767 
C 2.236584 1.29895 2.5 0.663008 2.5 -0 
C 2.5 -0.663008 2.236584 -1.29895 1.767767 -1.767767 
C 1.29895 -2.236584 0.663008 -2.5 0 -2.5 
C -0.663008 -2.5 -1.29895 -2.236584 -1.767767 -1.767767 
C -2.236584 -1.29895 -2.5 -0.663008 -2.5 0 
C -2.5 0.663008 -2.236584 1.29895 -1.767767 1.767767 
C -1.29895 2.236584 -0.663008 2.5 0 2.5 
z
" id="C2_0_c7f021dc6a"/>
    </defs>
    <g clip-path="url(#p3b060058db)">
     <use style="fill:#0000ff;" x="296.642096" xlink:href="#C2_0_c7f021dc6a" y="356.991477"/>
    </g>
    <g clip-path="url(#p3b060058db)">
     <use style="fill:#0000ff;" x="296.221681" xlink:href="#C2_0_c7f021dc6a" y="277.663809"/>
    </g>
    <g clip-path="url(#p3b060058db)">
     <use style="fill:#0000ff;" x="295.501749" xlink:href="#C2_0_c7f021dc6a" y="351.754041"/>
    </g>
    <g clip-path="url(#p3b060058db)">
     <use style="fill:#0000ff;" x="297.848479" xlink:href="#C2_0_c7f021dc6a" y="386.162034"/>
    </g>
    <g clip-path="url(#p3b060058db)">
     <use style="fill:#0000ff;" x="306.527767" xlink:href="#C2_0_c7f021dc6a" y="330.797462"/>
    </g>
    <g clip-path="url(#p3b060058db)">
     <use style="fill:#0000ff;" x="301.759169" xlink:href="#C2_0_c7f021dc6a" y="344.880454"/>
    </g>
    <g clip-path="url(#p3b060058db)">
     <use style="fill:#0000ff;" x="292.839322" xlink:href="#C2_0_c7f021dc6a" y="282.773416"/>
    </g>
    <g clip-path="url(#p3b060058db)">
     <use style="fill:#0000ff;" x="294.267257" xlink:href="#C2_0_c7f021dc6a" y="343.886085"/>
    </g>
    <g clip-path="url(#p3b060058db)">
     <use style="fill:#0000ff;" x="305.645018" xlink:href="#C2_0_c7f021dc6a" y="375.565324"/>
    </g>
    <g clip-path="url(#p3b060058db)">
     <use style="fill:#0000ff;" x="305.112585" xlink:href="#C2_0_c7f021dc6a" y="373.413939"/>
    </g>
    <g clip-path="url(#p3b060058db)">
     <use style="fill:#0000ff;" x="305.769284" xlink:href="#C2_0_c7f021dc6a" y="362.101755"/>
    </g>
    <g clip-path="url(#p3b060058db)">
     <use style="fill:#0000ff;" x="306.9513" xlink:href="#C2_0_c7f021dc6a" y="268.466246"/>
    </g>
    <g clip-path="url(#p3b060058db)">
     <use style="fill:#0000ff;" x="295.044487" xlink:href="#C2_0_c7f021dc6a" y="239.472651"/>
    </g>
    <g clip-path="url(#p3b060058db)">
     <use style="fill:#0000ff;" x="299.682119" xlink:href="#C2_0_c7f021dc6a" y="351.533554"/>
    </g>
    <g clip-path="url(#p3b060058db)">
     <use style="fill:#0000ff;" x="306.158457" xlink:href="#C2_0_c7f021dc6a" y="376.367187"/>
    </g>
    <g clip-path="url(#p3b060058db)">
     <use style="fill:#0000ff;" x="308.533129" xlink:href="#C2_0_c7f021dc6a" y="308.414571"/>
    </g>
    <g clip-path="url(#p3b060058db)">
     <use style="fill:#0000ff;" x="298.73673" xlink:href="#C2_0_c7f021dc6a" y="314.807283"/>
    </g>
    <g clip-path="url(#p3b060058db)">
     <use style="fill:#0000ff;" x="293.328835" xlink:href="#C2_0_c7f021dc6a" y="356.621863"/>
    </g>
    <g clip-path="url(#p3b060058db)">
     <use style="fill:#0000ff;" x="304.925361" xlink:href="#C2_0_c7f021dc6a" y="352.333577"/>
    </g>
   </g>
   <g id="PathCollection_9">
    <defs>
     <path d="M 0 2.5 
C 0.663008 2.5 1.29895 2.236584 1.767767 1.767767 
C 2.236584 1.29895 2.5 0.663008 2.5 -0 
C 2.5 -0.663008 2.236584 -1.29895 1.767767 -1.767767 
C 1.29895 -2.236584 0.663008 -2.5 0 -2.5 
C -0.663008 -2.5 -1.29895 -2.236584 -1.767767 -1.767767 
C -2.236584 -1.29895 -2.5 -0.663008 -2.5 0 
C -2.5 0.663008 -2.236584 1.29895 -1.767767 1.767767 
C -1.29895 2.236584 -0.663008 2.5 0 2.5 
z
" id="C3_0_4a10d357d1"/>
    </defs>
    <g clip-path="url(#p3b060058db)">
     <use style="fill:#0000ff;" x="397.294927" xlink:href="#C3_0_4a10d357d1" y="283.910813"/>
    </g>
    <g clip-path="url(#p3b060058db)">
     <use style="fill:#0000ff;" x="397.126628" xlink:href="#C3_0_4a10d357d1" y="205.372691"/>
    </g>
    <g clip-path="url(#p3b060058db)">
     <use style="fill:#0000ff;" x="398.679412" xlink:href="#C3_0_4a10d357d1" y="308.559235"/>
    </g>
    <g clip-path="url(#p3b060058db)">
     <use style="fill:#0000ff;" x="388.272406" xlink:href="#C3_0_4a10d357d1" y="364.02171"/>
    </g>
    <g clip-path="url(#p3b060058db)">
     <use style="fill:#0000ff;" x="391.513445" xlink:href="#C3_0_4a10d357d1" y="330.012037"/>
    </g>
    <g clip-path="url(#p3b060058db)">
     <use style="fill:#0000ff;" x="394.273897" xlink:href="#C3_0_4a10d357d1" y="298.409112"/>
    </g>
    <g clip-path="url(#p3b060058db)">
     <use style="fill:#0000ff;" x="385.453236" xlink:href="#C3_0_4a10d357d1" y="232.549584"/>
    </g>
    <g clip-path="url(#p3b060058db)">
     <use style="fill:#0000ff;" x="391.763945" xlink:href="#C3_0_4a10d357d1" y="324.569319"/>
    </g>
    <g clip-path="url(#p3b060058db)">
     <use style="fill:#0000ff;" x="393.48251" xlink:href="#C3_0_4a10d357d1" y="351.69718"/>
    </g>
    <g clip-path="url(#p3b060058db)">
     <use style="fill:#0000ff;" x="390.690852" xlink:href="#C3_0_4a10d357d1" y="251.484446"/>
    </g>
    <g clip-path="url(#p3b060058db)">
     <use style="fill:#0000ff;" x="393.672967" xlink:href="#C3_0_4a10d357d1" y="222.142301"/>
    </g>
    <g clip-path="url(#p3b060058db)">
     <use style="fill:#0000ff;" x="387.560837" xlink:href="#C3_0_4a10d357d1" y="242.574828"/>
    </g>
    <g clip-path="url(#p3b060058db)">
     <use style="fill:#0000ff;" x="381.852783" xlink:href="#C3_0_4a10d357d1" y="299.80195"/>
    </g>
    <g clip-path="url(#p3b060058db)">
     <use style="fill:#0000ff;" x="399.479404" xlink:href="#C3_0_4a10d357d1" y="278.590939"/>
    </g>
    <g clip-path="url(#p3b060058db)">
     <use style="fill:#0000ff;" x="385.488488" xlink:href="#C3_0_4a10d357d1" y="257.491982"/>
    </g>
    <g clip-path="url(#p3b060058db)">
     <use style="fill:#0000ff;" x="387.812196" xlink:href="#C3_0_4a10d357d1" y="344.106903"/>
    </g>
   </g>
   <g id="PathCollection_10">
    <defs>
     <path d="M 0 2.5 
C 0.663008 2.5 1.29895 2.236584 1.767767 1.767767 
C 2.236584 1.29895 2.5 0.663008 2.5 -0 
C 2.5 -0.663008 2.236584 -1.29895 1.767767 -1.767767 
C 1.29895 -2.236584 0.663008 -2.5 0 -2.5 
C -0.663008 -2.5 -1.29895 -2.236584 -1.767767 -1.767767 
C -2.236584 -1.29895 -2.5 -0.663008 -2.5 0 
C -2.5 0.663008 -2.236584 1.29895 -1.767767 1.767767 
C -1.29895 2.236584 -0.663008 2.5 0 2.5 
z
" id="C4_0_2b1779db25"/>
    </defs>
    <g clip-path="url(#p3b060058db)">
     <use style="fill:#0000ff;" x="483.05097" xlink:href="#C4_0_2b1779db25" y="374.878524"/>
    </g>
    <g clip-path="url(#p3b060058db)">
     <use style="fill:#0000ff;" x="481.808021" xlink:href="#C4_0_2b1779db25" y="384.220056"/>
    </g>
    <g clip-path="url(#p3b060058db)">
     <use style="fill:#0000ff;" x="477.908517" xlink:href="#C4_0_2b1779db25" y="379.573659"/>
    </g>
    <g clip-path="url(#p3b060058db)">
     <use style="fill:#0000ff;" x="474.924014" xlink:href="#C4_0_2b1779db25" y="367.019477"/>
    </g>
    <g clip-path="url(#p3b060058db)">
     <use style="fill:#0000ff;" x="476.688362" xlink:href="#C4_0_2b1779db25" y="374.134184"/>
    </g>
    <g clip-path="url(#p3b060058db)">
     <use style="fill:#0000ff;" x="474.078483" xlink:href="#C4_0_2b1779db25" y="350.081078"/>
    </g>
    <g clip-path="url(#p3b060058db)">
     <use style="fill:#0000ff;" x="474.357889" xlink:href="#C4_0_2b1779db25" y="307.367111"/>
    </g>
    <g clip-path="url(#p3b060058db)">
     <use style="fill:#0000ff;" x="480.896906" xlink:href="#C4_0_2b1779db25" y="380.627832"/>
    </g>
    <g clip-path="url(#p3b060058db)">
     <use style="fill:#0000ff;" x="477.628158" xlink:href="#C4_0_2b1779db25" y="372.039797"/>
    </g>
    <g clip-path="url(#p3b060058db)">
     <use style="fill:#0000ff;" x="488.2342" xlink:href="#C4_0_2b1779db25" y="356.484162"/>
    </g>
    <g clip-path="url(#p3b060058db)">
     <use style="fill:#0000ff;" x="480.830467" xlink:href="#C4_0_2b1779db25" y="361.76326"/>
    </g>
    <g clip-path="url(#p3b060058db)">
     <use style="fill:#0000ff;" x="477.227189" xlink:href="#C4_0_2b1779db25" y="337.449107"/>
    </g>
    <g clip-path="url(#p3b060058db)">
     <use style="fill:#0000ff;" x="472.006568" xlink:href="#C4_0_2b1779db25" y="387.223493"/>
    </g>
    <g clip-path="url(#p3b060058db)">
     <use style="fill:#0000ff;" x="476.305242" xlink:href="#C4_0_2b1779db25" y="360.557791"/>
    </g>
    <g clip-path="url(#p3b060058db)">
     <use style="fill:#0000ff;" x="476.182172" xlink:href="#C4_0_2b1779db25" y="377.301692"/>
    </g>
    <g clip-path="url(#p3b060058db)">
     <use style="fill:#0000ff;" x="473.942328" xlink:href="#C4_0_2b1779db25" y="368.123912"/>
    </g>
    <g clip-path="url(#p3b060058db)">
     <use style="fill:#0000ff;" x="484.324795" xlink:href="#C4_0_2b1779db25" y="310.26927"/>
    </g>
    <g clip-path="url(#p3b060058db)">
     <use style="fill:#0000ff;" x="480.934097" xlink:href="#C4_0_2b1779db25" y="335.825098"/>
    </g>
    <g clip-path="url(#p3b060058db)">
     <use style="fill:#0000ff;" x="476.08322" xlink:href="#C4_0_2b1779db25" y="364.533113"/>
    </g>
   </g>
  </g>
 </g>
 <defs>
  <clipPath id="p3b060058db">
   <rect height="434.88" width="446.4" x="78.117813" y="16.505156"/>
  </clipPath>
 </defs>
</svg>
